M48
; DRILL file {KiCad 5.1.10} date Wed Nov 10 14:40:10 2021
; FORMAT={3:3/ absolute / metric / keep zeros}
; #@! TF.CreationDate,2021-11-10T14:40:10-05:00
; #@! TF.GenerationSoftware,Kicad,Pcbnew,5.1.10
FMAT,2
METRIC
T1C0.635
T2C1.016
%
G90
G05
T1
X110528Y-086690
X110581Y-084379
X110599Y-080604
X110719Y-082870
X111062Y-096329
X112088Y-078166
X114534Y-083142
X115362Y-086070
X115527Y-084899
X117099Y-083571
X118486Y-083536
X119344Y-084353
X120066Y-092956
X120310Y-083678
X122936Y-078722
X123789Y-083503
X123861Y-085347
X124681Y-084239
X127112Y-089075
X128458Y-095679
X130838Y-077998
T2
X104000Y-075105
X104000Y-077645
X104000Y-080185
X104000Y-082725
X104000Y-085265
X104000Y-087805
X104000Y-090345
X104000Y-092885
X107109Y-076500
X107109Y-094501
X109649Y-076500
X109649Y-094501
X112189Y-076500
X112189Y-094501
X114729Y-076500
X114729Y-094501
X117269Y-076500
X117269Y-094501
X119809Y-076500
X119809Y-094501
X122349Y-076500
X122349Y-094501
X124889Y-076500
X124889Y-094501
X128001Y-075105
X128001Y-077645
X128001Y-080185
X128001Y-082725
X128001Y-085265
X128001Y-087805
X128001Y-090345
X128001Y-092885
T0
M30
