%TF.GenerationSoftware,KiCad,Pcbnew,5.1.10*%
%TF.CreationDate,2021-11-10T14:40:26-05:00*%
%TF.ProjectId,panel_8x8_32mm,70616e65-6c5f-4387-9838-5f33326d6d2e,rev?*%
%TF.SameCoordinates,Original*%
%TF.FileFunction,Copper,L1,Top*%
%TF.FilePolarity,Positive*%
%FSLAX46Y46*%
G04 Gerber Fmt 4.6, Leading zero omitted, Abs format (unit mm)*
G04 Created by KiCad (PCBNEW 5.1.10) date 2021-11-10 14:40:26*
%MOMM*%
%LPD*%
G01*
G04 APERTURE LIST*
%TA.AperFunction,SMDPad,CuDef*%
%ADD10R,0.635000X1.143000*%
%TD*%
%TA.AperFunction,SMDPad,CuDef*%
%ADD11R,1.143000X0.635000*%
%TD*%
%TA.AperFunction,SMDPad,CuDef*%
%ADD12R,0.449580X1.998980*%
%TD*%
%TA.AperFunction,SMDPad,CuDef*%
%ADD13R,1.998980X0.449580*%
%TD*%
%TA.AperFunction,ComponentPad*%
%ADD14C,1.524000*%
%TD*%
%TA.AperFunction,ComponentPad*%
%ADD15R,1.524000X1.524000*%
%TD*%
%TA.AperFunction,SMDPad,CuDef*%
%ADD16R,1.300480X0.500380*%
%TD*%
%TA.AperFunction,ViaPad*%
%ADD17C,0.889000*%
%TD*%
%TA.AperFunction,Conductor*%
%ADD18C,0.203200*%
%TD*%
%TA.AperFunction,Conductor*%
%ADD19C,0.406400*%
%TD*%
%TA.AperFunction,Conductor*%
%ADD20C,0.304800*%
%TD*%
G04 APERTURE END LIST*
D10*
%TO.P,R9,1*%
%TO.N,N-000028*%
X127238760Y-72400160D03*
%TO.P,R9,2*%
%TO.N,GND*%
X128762760Y-72400160D03*
%TD*%
%TO.P,R8,1*%
%TO.N,N-000043*%
X107238800Y-91699080D03*
%TO.P,R8,2*%
%TO.N,N-000023*%
X108762800Y-91699080D03*
%TD*%
%TO.P,R7,1*%
%TO.N,N-000042*%
X101338380Y-98300540D03*
%TO.P,R7,2*%
%TO.N,N-000034*%
X102862380Y-98300540D03*
%TD*%
%TO.P,R6,1*%
%TO.N,N-000038*%
X107337860Y-88800940D03*
%TO.P,R6,2*%
%TO.N,N-000032*%
X108861860Y-88800940D03*
%TD*%
D11*
%TO.P,R5,1*%
%TO.N,N-000033*%
X125001020Y-80337660D03*
%TO.P,R5,2*%
%TO.N,N-000015*%
X125001020Y-81861660D03*
%TD*%
D10*
%TO.P,R4,1*%
%TO.N,N-000037*%
X107337860Y-85999320D03*
%TO.P,R4,2*%
%TO.N,N-000014*%
X108861860Y-85999320D03*
%TD*%
D11*
%TO.P,R3,1*%
%TO.N,N-000035*%
X130599180Y-86238080D03*
%TO.P,R3,2*%
%TO.N,N-000046*%
X130599180Y-87762080D03*
%TD*%
%TO.P,R2,1*%
%TO.N,N-000004*%
X130500120Y-80561180D03*
%TO.P,R2,2*%
%TO.N,N-000026*%
X130500120Y-79037180D03*
%TD*%
D10*
%TO.P,R1,1*%
%TO.N,N-000040*%
X103238300Y-72400160D03*
%TO.P,R1,2*%
%TO.N,N-000027*%
X104762300Y-72400160D03*
%TD*%
D12*
%TO.P,IC1,8*%
%TO.N,N-000017*%
X114421920Y-80083660D03*
%TO.P,IC1,7*%
%TO.N,N-000045*%
X115222020Y-80083660D03*
%TO.P,IC1,6*%
%TO.N,VCC*%
X116022120Y-80083660D03*
%TO.P,IC1,5*%
%TO.N,GND*%
X116822220Y-80083660D03*
%TO.P,IC1,4*%
%TO.N,VCC*%
X117622320Y-80083660D03*
%TO.P,IC1,3*%
%TO.N,GND*%
X118422420Y-80083660D03*
%TO.P,IC1,2*%
%TO.N,N-000016*%
X119222520Y-80083660D03*
%TO.P,IC1,1*%
%TO.N,N-000024*%
X120022620Y-80083660D03*
%TO.P,IC1,24*%
%TO.N,N-000027*%
X120017540Y-89649300D03*
%TO.P,IC1,17*%
%TO.N,N-000046*%
X114404140Y-89649300D03*
%TO.P,IC1,18*%
%TO.N,VCC*%
X115216940Y-89649300D03*
%TO.P,IC1,19*%
%TO.N,N/C*%
X116029740Y-89649300D03*
%TO.P,IC1,20*%
%TO.N,VCC*%
X116817140Y-89649300D03*
%TO.P,IC1,21*%
%TO.N,GND*%
X117629940Y-89649300D03*
%TO.P,IC1,22*%
%TO.N,N/C*%
X118417340Y-89649300D03*
%TO.P,IC1,23*%
%TO.N,N-000026*%
X119230140Y-89649300D03*
D13*
%TO.P,IC1,32*%
%TO.N,N-000025*%
X122024140Y-82075020D03*
%TO.P,IC1,31*%
%TO.N,N-000022*%
X122024140Y-82872580D03*
%TO.P,IC1,30*%
%TO.N,N-000020*%
X122024140Y-83675220D03*
%TO.P,IC1,29*%
%TO.N,N-000029*%
X122024140Y-84472780D03*
%TO.P,IC1,28*%
%TO.N,N-000005*%
X122024140Y-85275420D03*
%TO.P,IC1,27*%
%TO.N,N-000013*%
X122024140Y-86072980D03*
%TO.P,IC1,26*%
%TO.N,N-000028*%
X122024140Y-86875620D03*
%TO.P,IC1,25*%
%TO.N,N/C*%
X122024140Y-87673180D03*
%TO.P,IC1,9*%
%TO.N,N-000018*%
X112422940Y-82080100D03*
%TO.P,IC1,10*%
%TO.N,N-000019*%
X112422940Y-82867500D03*
%TO.P,IC1,11*%
%TO.N,N-000021*%
X112422940Y-83680300D03*
%TO.P,IC1,12*%
%TO.N,N-000023*%
X112422940Y-84467700D03*
%TO.P,IC1,13*%
%TO.N,N-000034*%
X112422940Y-85255100D03*
%TO.P,IC1,14*%
%TO.N,N-000032*%
X112422940Y-86067900D03*
%TO.P,IC1,15*%
%TO.N,N-000015*%
X112422940Y-86880700D03*
%TO.P,IC1,16*%
%TO.N,N-000014*%
X112422940Y-87693500D03*
%TD*%
D14*
%TO.P,MATRIX1,9*%
%TO.N,N-000031*%
X104000300Y-75105260D03*
%TO.P,MATRIX1,10*%
%TO.N,N-000037*%
X104000300Y-77645260D03*
%TO.P,MATRIX1,11*%
%TO.N,N-000038*%
X104000300Y-80185260D03*
%TO.P,MATRIX1,12*%
%TO.N,N-000039*%
X104000300Y-82725260D03*
%TO.P,MATRIX1,13*%
%TO.N,N-000040*%
X104000300Y-85265260D03*
%TO.P,MATRIX1,14*%
%TO.N,N-000041*%
X104000300Y-87805260D03*
%TO.P,MATRIX1,15*%
%TO.N,N-000042*%
X104000300Y-90345260D03*
%TO.P,MATRIX1,16*%
%TO.N,N-000043*%
X104000300Y-92885260D03*
D15*
%TO.P,MATRIX1,1*%
%TO.N,N-000008*%
X128000760Y-92885260D03*
D14*
%TO.P,MATRIX1,2*%
%TO.N,N-000044*%
X128000760Y-90345260D03*
%TO.P,MATRIX1,3*%
%TO.N,N-000004*%
X128000760Y-87805260D03*
%TO.P,MATRIX1,4*%
%TO.N,N-000035*%
X128000760Y-85265260D03*
%TO.P,MATRIX1,5*%
%TO.N,N-000030*%
X128000760Y-82725260D03*
%TO.P,MATRIX1,6*%
%TO.N,N-000033*%
X128000760Y-80185260D03*
%TO.P,MATRIX1,7*%
%TO.N,N-000036*%
X128000760Y-77645260D03*
%TO.P,MATRIX1,8*%
%TO.N,N-000009*%
X128000760Y-75105260D03*
%TD*%
D11*
%TO.P,C2,1*%
%TO.N,VCC*%
X124899420Y-89938860D03*
%TO.P,C2,2*%
%TO.N,GND*%
X124899420Y-91462860D03*
%TD*%
D10*
%TO.P,C1,1*%
%TO.N,VCC*%
X127238760Y-98800920D03*
%TO.P,C1,2*%
%TO.N,GND*%
X128762760Y-98800920D03*
%TD*%
D15*
%TO.P,P1,1*%
%TO.N,N-000005*%
X107109260Y-76499720D03*
D14*
%TO.P,P1,2*%
%TO.N,N-000013*%
X109649260Y-76499720D03*
%TO.P,P1,3*%
%TO.N,N-000028*%
X112189260Y-76499720D03*
%TO.P,P1,4*%
%TO.N,N/C*%
X114729260Y-76499720D03*
%TO.P,P1,5*%
X117269260Y-76499720D03*
%TO.P,P1,6*%
X119809260Y-76499720D03*
%TO.P,P1,7*%
%TO.N,VCC*%
X122349260Y-76499720D03*
%TO.P,P1,8*%
%TO.N,GND*%
X124889260Y-76499720D03*
%TD*%
D15*
%TO.P,P2,1*%
%TO.N,N-000005*%
X107109260Y-94500700D03*
D14*
%TO.P,P2,2*%
%TO.N,N-000013*%
X109649260Y-94500700D03*
%TO.P,P2,3*%
%TO.N,N-000029*%
X112189260Y-94500700D03*
%TO.P,P2,4*%
%TO.N,N-000014*%
X114729260Y-94500700D03*
%TO.P,P2,5*%
%TO.N,N-000046*%
X117269260Y-94500700D03*
%TO.P,P2,6*%
%TO.N,N-000015*%
X119809260Y-94500700D03*
%TO.P,P2,7*%
%TO.N,VCC*%
X122349260Y-94500700D03*
%TO.P,P2,8*%
%TO.N,GND*%
X124889260Y-94500700D03*
%TD*%
D16*
%TO.P,X1,2*%
%TO.N,GND*%
X108099860Y-81000600D03*
%TO.P,X1,3*%
%TO.N,N-000017*%
X108099860Y-79801720D03*
%TO.P,X1,1*%
%TO.N,N-000045*%
X108099860Y-82199480D03*
%TD*%
D17*
%TO.N,GND*%
X122936000Y-78722220D03*
%TO.N,N-000005*%
X110599220Y-80604360D03*
X115526820Y-84899500D03*
%TO.N,N-000013*%
X115361720Y-86070440D03*
%TO.N,N-000015*%
X111061500Y-96329500D03*
X110528100Y-86690200D03*
X124680980Y-84239100D03*
%TO.N,N-000016*%
X117099080Y-83571080D03*
%TO.N,N-000018*%
X114533680Y-83141820D03*
%TO.N,N-000019*%
X110718600Y-82870040D03*
%TO.N,N-000020*%
X120309640Y-83677760D03*
%TO.N,N-000021*%
X110581440Y-84378800D03*
%TO.N,N-000022*%
X119344440Y-84353400D03*
%TO.N,N-000024*%
X118485920Y-83535520D03*
%TO.N,N-000025*%
X123789440Y-83502500D03*
%TO.N,N-000026*%
X130837940Y-77998320D03*
X128457960Y-95679260D03*
%TO.N,N-000029*%
X120065800Y-92956380D03*
X123860560Y-85346540D03*
%TO.N,N-000046*%
X127111760Y-89075260D03*
%TO.N,VCC*%
X112087660Y-78165960D03*
%TD*%
D18*
%TO.N,GND*%
X128762760Y-98800920D02*
X128762760Y-97866200D01*
X124899420Y-94500700D02*
X124889260Y-94500700D01*
X128264920Y-97866200D02*
X124899420Y-94500700D01*
X128762760Y-97866200D02*
X128264920Y-97866200D01*
X128762760Y-72400160D02*
X128082040Y-72400160D01*
X108099860Y-81000600D02*
X107086400Y-81000600D01*
X128082040Y-73306940D02*
X128082040Y-72400160D01*
X124889260Y-76499720D02*
X128082040Y-73306940D01*
X107086400Y-79288640D02*
X107086400Y-81000600D01*
X116822220Y-80083660D02*
X116822220Y-78722220D01*
X118422420Y-78722220D02*
X116822220Y-78722220D01*
X122936000Y-78722220D02*
X118422420Y-78722220D01*
X118422420Y-80083660D02*
X118422420Y-78722220D01*
X107162600Y-79189580D02*
X107086400Y-79288640D01*
X108643420Y-79189580D02*
X107162600Y-79189580D01*
X110853220Y-77002640D02*
X108643420Y-79189580D01*
X110853220Y-74282300D02*
X110853220Y-77002640D01*
X113692940Y-71442580D02*
X110853220Y-74282300D01*
X127805180Y-71442580D02*
X113692940Y-71442580D01*
X128082040Y-71719440D02*
X127805180Y-71442580D01*
X128082040Y-72400160D02*
X128082040Y-71719440D01*
X124899420Y-91462860D02*
X125836680Y-90525600D01*
X125836680Y-90525600D02*
X125836680Y-89311480D01*
X125836680Y-89311480D02*
X125783340Y-89258140D01*
X125783340Y-89258140D02*
X124178060Y-89258140D01*
X124178060Y-89258140D02*
X121955560Y-91480640D01*
X121955560Y-91480640D02*
X118097300Y-91480640D01*
X117629940Y-89649300D02*
X117629940Y-91013280D01*
X118097300Y-91480640D02*
X117629940Y-91013280D01*
X124899420Y-94500700D02*
X124899420Y-91462860D01*
%TO.N,N-000004*%
X130500120Y-82303620D02*
X130500120Y-80561180D01*
X128808480Y-83995260D02*
X130500120Y-82303620D01*
X127416560Y-83995260D02*
X128808480Y-83995260D01*
X126646940Y-84764880D02*
X127416560Y-83995260D01*
X126646940Y-86451440D02*
X126646940Y-84764880D01*
X128000760Y-87805260D02*
X126646940Y-86451440D01*
%TO.N,N-000005*%
X106758740Y-81615280D02*
X106619040Y-81437480D01*
X107109260Y-76499720D02*
X107109260Y-77624940D01*
X115902740Y-85275420D02*
X120662700Y-85275420D01*
X115526820Y-84899500D02*
X115902740Y-85275420D01*
X122024140Y-85275420D02*
X120662700Y-85275420D01*
X106619040Y-78115160D02*
X107109260Y-77624940D01*
X106619040Y-81437480D02*
X106619040Y-78115160D01*
X109651800Y-81615280D02*
X106758740Y-81615280D01*
X110599220Y-80604360D02*
X109651800Y-81615280D01*
%TO.N,N-000013*%
X120662700Y-86070440D02*
X120662700Y-86072980D01*
X115361720Y-86070440D02*
X120662700Y-86070440D01*
X122024140Y-86072980D02*
X120662700Y-86072980D01*
%TO.N,N-000014*%
X109542580Y-85999320D02*
X109542580Y-86847680D01*
X108861860Y-85999320D02*
X109542580Y-85999320D01*
X112422940Y-87693500D02*
X111465360Y-87693500D01*
X111465360Y-87693500D02*
X111178340Y-87693500D01*
X111465360Y-87693500D02*
X111465360Y-91236800D01*
X111465360Y-91236800D02*
X114729260Y-94500700D01*
X110388400Y-87693500D02*
X111178340Y-87693500D01*
X109542580Y-86847680D02*
X110388400Y-87693500D01*
%TO.N,N-000015*%
X112422940Y-86880700D02*
X111061500Y-86880700D01*
X110871000Y-86690200D02*
X110528100Y-86690200D01*
X111061500Y-86880700D02*
X110871000Y-86690200D01*
X117980460Y-96329500D02*
X111061500Y-96329500D01*
X119809260Y-94500700D02*
X117980460Y-96329500D01*
X125001020Y-81861660D02*
X125001020Y-82542380D01*
X124680980Y-82862420D02*
X125001020Y-82542380D01*
X124680980Y-84239100D02*
X124680980Y-82862420D01*
%TO.N,N-000016*%
X119222520Y-80083660D02*
X119222520Y-81447640D01*
X119222520Y-81447640D02*
X117099080Y-83571080D01*
%TO.N,N-000017*%
X114421920Y-80083660D02*
X114421920Y-78722220D01*
X108099860Y-79801720D02*
X109113320Y-79801720D01*
X112781080Y-78722220D02*
X114421920Y-78722220D01*
X112529620Y-78973680D02*
X112781080Y-78722220D01*
X109941360Y-78973680D02*
X112529620Y-78973680D01*
X109113320Y-79801720D02*
X109941360Y-78973680D01*
%TO.N,N-000018*%
X113786920Y-82395060D02*
X114533680Y-83141820D01*
X113786920Y-82080100D02*
X113786920Y-82395060D01*
X112422940Y-82080100D02*
X113786920Y-82080100D01*
%TO.N,N-000019*%
X112422940Y-82867500D02*
X111061500Y-82867500D01*
X111061500Y-82870040D02*
X111061500Y-82867500D01*
X110718600Y-82870040D02*
X111061500Y-82870040D01*
%TO.N,N-000020*%
X122024140Y-83675220D02*
X120662700Y-83675220D01*
X120662700Y-83675220D02*
X120309640Y-83675220D01*
X120309640Y-83675220D02*
X120309640Y-83677760D01*
%TO.N,N-000021*%
X111061500Y-83898740D02*
X111061500Y-83680300D01*
X110581440Y-84378800D02*
X111061500Y-83898740D01*
X112422940Y-83680300D02*
X111061500Y-83680300D01*
%TO.N,N-000022*%
X119344440Y-83339940D02*
X119814340Y-82870040D01*
X122024140Y-82872580D02*
X120662700Y-82872580D01*
X120662700Y-82870040D02*
X120662700Y-82872580D01*
X119814340Y-82870040D02*
X120662700Y-82870040D01*
X119344440Y-84353400D02*
X119344440Y-83339940D01*
%TO.N,N-000023*%
X115709700Y-95666560D02*
X111760000Y-95666560D01*
X116141500Y-95234760D02*
X115709700Y-95666560D01*
X110919260Y-93174820D02*
X109443520Y-91699080D01*
X110919260Y-94825820D02*
X110919260Y-93174820D01*
X111760000Y-95666560D02*
X110919260Y-94825820D01*
X113786920Y-84467700D02*
X113786920Y-91681300D01*
X112422940Y-84467700D02*
X113786920Y-84467700D01*
X108762800Y-91699080D02*
X109443520Y-91699080D01*
X116141500Y-94035880D02*
X116141500Y-95234760D01*
X113786920Y-91681300D02*
X116141500Y-94035880D01*
%TO.N,N-000024*%
X120022620Y-81998820D02*
X120022620Y-80083660D01*
X118485920Y-83535520D02*
X120022620Y-81998820D01*
%TO.N,N-000025*%
X123517660Y-82075020D02*
X122024140Y-82075020D01*
X123789440Y-82346800D02*
X123517660Y-82075020D01*
X123789440Y-83502500D02*
X123789440Y-82346800D01*
%TO.N,N-000026*%
X130500120Y-78336140D02*
X130837940Y-77998320D01*
X119230140Y-89649300D02*
X119230140Y-91013280D01*
X128457960Y-95679260D02*
X126301500Y-93522800D01*
X126301500Y-93522800D02*
X126301500Y-89115900D01*
X126301500Y-89115900D02*
X125976380Y-88790780D01*
X122750580Y-88790780D02*
X120528080Y-91013280D01*
X125976380Y-88790780D02*
X122750580Y-88790780D01*
X120528080Y-91013280D02*
X119230140Y-91013280D01*
X130500120Y-79037180D02*
X130500120Y-78336140D01*
%TO.N,N-000027*%
X128925320Y-70977760D02*
X106865420Y-70977760D01*
X129446020Y-80970120D02*
X129446020Y-71498460D01*
X129446020Y-71498460D02*
X128925320Y-70977760D01*
X106865420Y-70977760D02*
X105443020Y-72400160D01*
X104762300Y-72400160D02*
X105443020Y-72400160D01*
X120017540Y-89649300D02*
X120017540Y-88287860D01*
X128849120Y-81567020D02*
X129446020Y-80970120D01*
X126918720Y-81567020D02*
X128849120Y-81567020D01*
X126179580Y-85717380D02*
X126179580Y-84239100D01*
X120017540Y-88287860D02*
X123609100Y-88287860D01*
X123609100Y-88287860D02*
X126179580Y-85717380D01*
X126179580Y-84239100D02*
X126862840Y-83555840D01*
X126862840Y-83555840D02*
X126862840Y-81622900D01*
X126862840Y-81622900D02*
X126918720Y-81567020D01*
%TO.N,N-000028*%
X125587760Y-82870040D02*
X125943360Y-82514440D01*
X122024140Y-86875620D02*
X123388120Y-86875620D01*
X125811280Y-72400160D02*
X127238760Y-72400160D01*
X123761500Y-74449940D02*
X125811280Y-72400160D01*
X123761500Y-80690720D02*
X123761500Y-74449940D01*
X124249180Y-81178400D02*
X123761500Y-80690720D01*
X125887480Y-81178400D02*
X124249180Y-81178400D01*
X125943360Y-82514440D02*
X125943360Y-81234280D01*
X125587760Y-85138260D02*
X125587760Y-82870040D01*
X123850400Y-86875620D02*
X125587760Y-85138260D01*
X123388120Y-86875620D02*
X123850400Y-86875620D01*
X114239040Y-74449940D02*
X123761500Y-74449940D01*
X112189260Y-76499720D02*
X114239040Y-74449940D01*
X125943360Y-81234280D02*
X125887480Y-81178400D01*
%TO.N,N-000029*%
X123860560Y-85346540D02*
X123388120Y-84874100D01*
X123388120Y-84874100D02*
X123388120Y-84472780D01*
X120937020Y-93827600D02*
X120065800Y-92956380D01*
X122024140Y-84472780D02*
X123388120Y-84472780D01*
X120937020Y-95156020D02*
X120937020Y-93827600D01*
X118612920Y-97480120D02*
X120937020Y-95156020D01*
X111003080Y-97480120D02*
X118612920Y-97480120D01*
X108237020Y-94714060D02*
X111003080Y-97480120D01*
X108237020Y-92964000D02*
X108237020Y-94714060D01*
X109308900Y-90761820D02*
X108135420Y-90761820D01*
X108135420Y-90761820D02*
X108079540Y-90817700D01*
X108079540Y-92806520D02*
X108237020Y-92964000D01*
X108079540Y-90817700D02*
X108079540Y-92806520D01*
X112189260Y-94500700D02*
X112189260Y-93642180D01*
X112189260Y-93642180D02*
X109308900Y-90761820D01*
%TO.N,N-000032*%
X112422940Y-86067900D02*
X111061500Y-86067900D01*
X108861860Y-88800940D02*
X108181140Y-88800940D01*
X110644940Y-85651340D02*
X111061500Y-86067900D01*
X110050580Y-85651340D02*
X110644940Y-85651340D01*
X109461300Y-85062060D02*
X110050580Y-85651340D01*
X108234480Y-85062060D02*
X109461300Y-85062060D01*
X108181140Y-85115400D02*
X108234480Y-85062060D01*
X108181140Y-88800940D02*
X108181140Y-85115400D01*
%TO.N,N-000033*%
X128000760Y-80185260D02*
X126088140Y-80185260D01*
X125001020Y-80337660D02*
X125935740Y-80337660D01*
X126088140Y-80185260D02*
X125935740Y-80337660D01*
%TO.N,N-000034*%
X104995980Y-76487020D02*
X106151680Y-77642720D01*
X112422940Y-85255100D02*
X111061500Y-85255100D01*
X110992920Y-85186520D02*
X111061500Y-85255100D01*
X110246160Y-85186520D02*
X110992920Y-85186520D01*
X109100620Y-84040980D02*
X110246160Y-85186520D01*
X107901740Y-84040980D02*
X109100620Y-84040980D01*
X106151680Y-82290920D02*
X107901740Y-84040980D01*
X106151680Y-77642720D02*
X106151680Y-82290920D01*
X103477060Y-76487020D02*
X104995980Y-76487020D01*
X102875080Y-77089000D02*
X103477060Y-76487020D01*
X102875080Y-83190080D02*
X102875080Y-77089000D01*
X104226360Y-83853020D02*
X103538020Y-83853020D01*
X105133140Y-84759800D02*
X104226360Y-83853020D01*
X105133140Y-91048840D02*
X105133140Y-84759800D01*
X104566720Y-91615260D02*
X105133140Y-91048840D01*
X103393240Y-91615260D02*
X104566720Y-91615260D01*
X102862380Y-92146120D02*
X103393240Y-91615260D01*
X102862380Y-98300540D02*
X102862380Y-92146120D01*
X103538020Y-83853020D02*
X102875080Y-83190080D01*
%TO.N,N-000035*%
X130307080Y-85265260D02*
X130599180Y-85557360D01*
X128000760Y-85265260D02*
X130307080Y-85265260D01*
X130599180Y-86238080D02*
X130599180Y-85557360D01*
%TO.N,N-000037*%
X107337860Y-85999320D02*
X107337860Y-85064600D01*
X105636060Y-83362800D02*
X107337860Y-85064600D01*
X105636060Y-79281020D02*
X105636060Y-83362800D01*
X104000300Y-77645260D02*
X105636060Y-79281020D01*
%TO.N,N-000038*%
X106657140Y-85333840D02*
X106657140Y-88800940D01*
X105148380Y-83825080D02*
X106657140Y-85333840D01*
X105148380Y-81333340D02*
X105148380Y-83825080D01*
X104000300Y-80185260D02*
X105148380Y-81333340D01*
X107337860Y-88800940D02*
X106657140Y-88800940D01*
%TO.N,N-000040*%
X103238300Y-72400160D02*
X102557580Y-72400160D01*
X102092760Y-83357720D02*
X104000300Y-85265260D01*
X102092760Y-72864980D02*
X102092760Y-83357720D01*
X102557580Y-72400160D02*
X102092760Y-72864980D01*
%TO.N,N-000042*%
X101338380Y-93007180D02*
X101338380Y-98300540D01*
X104000300Y-90345260D02*
X101338380Y-93007180D01*
%TO.N,N-000043*%
X105371900Y-92885260D02*
X106558080Y-91699080D01*
X104000300Y-92885260D02*
X105371900Y-92885260D01*
X107238800Y-91699080D02*
X106558080Y-91699080D01*
%TO.N,N-000045*%
X110243620Y-82199480D02*
X108099860Y-82199480D01*
X110995460Y-81447640D02*
X110243620Y-82199480D01*
X115222020Y-81447640D02*
X110995460Y-81447640D01*
X115222020Y-80083660D02*
X115222020Y-81447640D01*
%TO.N,N-000046*%
X114404140Y-91635580D02*
X114404140Y-89649300D01*
X130599180Y-87762080D02*
X130599180Y-88442800D01*
X129966720Y-89075260D02*
X127111760Y-89075260D01*
X130599180Y-88442800D02*
X129966720Y-89075260D01*
X117269260Y-94500700D02*
X114404140Y-91635580D01*
D19*
%TO.N,VCC*%
X117622320Y-80083660D02*
X117622320Y-81465420D01*
X117124480Y-81963260D02*
X116022120Y-81963260D01*
X117622320Y-81465420D02*
X117124480Y-81963260D01*
X116022120Y-80083660D02*
X116022120Y-78252320D01*
X116022120Y-78252320D02*
X116357400Y-77917040D01*
X122349260Y-77436980D02*
X122349260Y-76499720D01*
X121869200Y-77917040D02*
X122349260Y-77436980D01*
X116357400Y-77917040D02*
X121869200Y-77917040D01*
X115216940Y-89649300D02*
X115216940Y-87635080D01*
X116022120Y-82974180D02*
X116022120Y-81963260D01*
X116022120Y-81963260D02*
X116022120Y-80083660D01*
X114427000Y-84569300D02*
X116022120Y-82974180D01*
X114427000Y-86845140D02*
X114427000Y-84569300D01*
X115216940Y-87635080D02*
X114427000Y-86845140D01*
X115216940Y-89649300D02*
X115216940Y-91186000D01*
X117708680Y-92031820D02*
X117708680Y-92044520D01*
X116062760Y-92031820D02*
X117708680Y-92031820D01*
X115216940Y-91186000D02*
X116062760Y-92031820D01*
X122349260Y-94500700D02*
X122349260Y-92605860D01*
X116817140Y-91610180D02*
X116817140Y-89649300D01*
X117251480Y-92044520D02*
X116817140Y-91610180D01*
X121787920Y-92044520D02*
X117708680Y-92044520D01*
X117708680Y-92044520D02*
X117251480Y-92044520D01*
X122349260Y-92605860D02*
X121787920Y-92044520D01*
D20*
X122349260Y-92301060D02*
X122349260Y-94500700D01*
X122349260Y-92301060D02*
X123979940Y-90670380D01*
X123979940Y-90670380D02*
X124899420Y-90670380D01*
X112087660Y-78165960D02*
X115935760Y-78165960D01*
X115935760Y-78165960D02*
X116022120Y-78252320D01*
X127238760Y-98800920D02*
X126507240Y-98800920D01*
X126507240Y-98800920D02*
X126507240Y-98658680D01*
X126507240Y-98658680D02*
X122349260Y-94500700D01*
X124899420Y-89938860D02*
X124899420Y-90670380D01*
%TD*%
M02*
