%FSLAX45Y45*%
G04 Gerber Fmt 4.5, Leading zero omitted, Abs format (unit mm)*
G04 Created by KiCad (PCBNEW 5.1.10) date 2021-11-10 14:39:57*
%MOMM*%
%LPD*%
G01*
G04 APERTURE LIST*
%TA.AperFunction,Profile*%
%ADD10C,0.381000*%
%TD*%
%ADD11C,0.200000*%
%ADD12C,0.300000*%
G04 APERTURE END LIST*
D10*
X13200126Y-9999980D02*
X9999980Y-9999980D01*
X13200126Y-6800088D02*
X13200126Y-9999980D01*
X9999980Y-6800088D02*
X13200126Y-6800088D01*
X9999980Y-9999980D02*
X9999980Y-6800088D01*
D11*
X11021060Y-8637270D02*
X11084560Y-8700770D01*
X11084560Y-8637270D02*
X11021060Y-8700770D01*
X11026394Y-8406130D02*
X11089894Y-8469630D01*
X11089894Y-8406130D02*
X11026394Y-8469630D01*
X11028172Y-8028686D02*
X11091672Y-8092186D01*
X11091672Y-8028686D02*
X11028172Y-8092186D01*
X11040110Y-8255254D02*
X11103610Y-8318754D01*
X11103610Y-8255254D02*
X11040110Y-8318754D01*
X11074400Y-9601200D02*
X11137900Y-9664700D01*
X11137900Y-9601200D02*
X11074400Y-9664700D01*
X11177016Y-7784846D02*
X11240516Y-7848346D01*
X11240516Y-7784846D02*
X11177016Y-7848346D01*
X11421618Y-8282432D02*
X11485118Y-8345932D01*
X11485118Y-8282432D02*
X11421618Y-8345932D01*
X11504422Y-8575294D02*
X11567922Y-8638794D01*
X11567922Y-8575294D02*
X11504422Y-8638794D01*
X11520932Y-8458200D02*
X11584432Y-8521700D01*
X11584432Y-8458200D02*
X11520932Y-8521700D01*
X11678158Y-8325358D02*
X11741658Y-8388858D01*
X11741658Y-8325358D02*
X11678158Y-8388858D01*
X11816842Y-8321802D02*
X11880342Y-8385302D01*
X11880342Y-8321802D02*
X11816842Y-8385302D01*
X11902694Y-8403590D02*
X11966194Y-8467090D01*
X11966194Y-8403590D02*
X11902694Y-8467090D01*
X11974830Y-9263888D02*
X12038330Y-9327388D01*
X12038330Y-9263888D02*
X11974830Y-9327388D01*
X11999214Y-8336026D02*
X12062714Y-8399526D01*
X12062714Y-8336026D02*
X11999214Y-8399526D01*
X12261850Y-7840472D02*
X12325350Y-7903972D01*
X12325350Y-7840472D02*
X12261850Y-7903972D01*
X12347194Y-8318500D02*
X12410694Y-8382000D01*
X12410694Y-8318500D02*
X12347194Y-8382000D01*
X12354306Y-8502904D02*
X12417806Y-8566404D01*
X12417806Y-8502904D02*
X12354306Y-8566404D01*
X12436348Y-8392160D02*
X12499848Y-8455660D01*
X12499848Y-8392160D02*
X12436348Y-8455660D01*
X12679426Y-8875776D02*
X12742926Y-8939276D01*
X12742926Y-8875776D02*
X12679426Y-8939276D01*
X12814046Y-9536176D02*
X12877546Y-9599676D01*
X12877546Y-9536176D02*
X12814046Y-9599676D01*
X13052044Y-7768082D02*
X13115544Y-7831582D01*
X13115544Y-7768082D02*
X13052044Y-7831582D01*
X10450830Y-7510526D02*
G75*
G03*
X10450830Y-7510526I-50800J0D01*
G01*
X10450830Y-7764526D02*
G75*
G03*
X10450830Y-7764526I-50800J0D01*
G01*
X10450830Y-8018526D02*
G75*
G03*
X10450830Y-8018526I-50800J0D01*
G01*
X10450830Y-8272526D02*
G75*
G03*
X10450830Y-8272526I-50800J0D01*
G01*
X10450830Y-8526526D02*
G75*
G03*
X10450830Y-8526526I-50800J0D01*
G01*
X10450830Y-8780526D02*
G75*
G03*
X10450830Y-8780526I-50800J0D01*
G01*
X10450830Y-9034526D02*
G75*
G03*
X10450830Y-9034526I-50800J0D01*
G01*
X10450830Y-9288526D02*
G75*
G03*
X10450830Y-9288526I-50800J0D01*
G01*
X10761726Y-7649972D02*
G75*
G03*
X10761726Y-7649972I-50800J0D01*
G01*
X10761726Y-9450070D02*
G75*
G03*
X10761726Y-9450070I-50800J0D01*
G01*
X11015726Y-7649972D02*
G75*
G03*
X11015726Y-7649972I-50800J0D01*
G01*
X11015726Y-9450070D02*
G75*
G03*
X11015726Y-9450070I-50800J0D01*
G01*
X11269726Y-7649972D02*
G75*
G03*
X11269726Y-7649972I-50800J0D01*
G01*
X11269726Y-9450070D02*
G75*
G03*
X11269726Y-9450070I-50800J0D01*
G01*
X11523726Y-7649972D02*
G75*
G03*
X11523726Y-7649972I-50800J0D01*
G01*
X11523726Y-9450070D02*
G75*
G03*
X11523726Y-9450070I-50800J0D01*
G01*
X11777726Y-7649972D02*
G75*
G03*
X11777726Y-7649972I-50800J0D01*
G01*
X11777726Y-9450070D02*
G75*
G03*
X11777726Y-9450070I-50800J0D01*
G01*
X12031726Y-7649972D02*
G75*
G03*
X12031726Y-7649972I-50800J0D01*
G01*
X12031726Y-9450070D02*
G75*
G03*
X12031726Y-9450070I-50800J0D01*
G01*
X12285726Y-7649972D02*
G75*
G03*
X12285726Y-7649972I-50800J0D01*
G01*
X12285726Y-9450070D02*
G75*
G03*
X12285726Y-9450070I-50800J0D01*
G01*
X12539726Y-7649972D02*
G75*
G03*
X12539726Y-7649972I-50800J0D01*
G01*
X12539726Y-9450070D02*
G75*
G03*
X12539726Y-9450070I-50800J0D01*
G01*
X12850876Y-7510526D02*
G75*
G03*
X12850876Y-7510526I-50800J0D01*
G01*
X12850876Y-7764526D02*
G75*
G03*
X12850876Y-7764526I-50800J0D01*
G01*
X12850876Y-8018526D02*
G75*
G03*
X12850876Y-8018526I-50800J0D01*
G01*
X12850876Y-8272526D02*
G75*
G03*
X12850876Y-8272526I-50800J0D01*
G01*
X12850876Y-8526526D02*
G75*
G03*
X12850876Y-8526526I-50800J0D01*
G01*
X12850876Y-8780526D02*
G75*
G03*
X12850876Y-8780526I-50800J0D01*
G01*
X12850876Y-9034526D02*
G75*
G03*
X12850876Y-9034526I-50800J0D01*
G01*
X12850876Y-9288526D02*
G75*
G03*
X12850876Y-9288526I-50800J0D01*
G01*
D12*
X10267358Y-10484744D02*
X10267358Y-10184744D01*
X10338787Y-10184744D01*
X10381644Y-10199030D01*
X10410216Y-10227602D01*
X10424501Y-10256173D01*
X10438787Y-10313316D01*
X10438787Y-10356173D01*
X10424501Y-10413316D01*
X10410216Y-10441887D01*
X10381644Y-10470459D01*
X10338787Y-10484744D01*
X10267358Y-10484744D01*
X10567358Y-10484744D02*
X10567358Y-10284744D01*
X10567358Y-10341887D02*
X10581644Y-10313316D01*
X10595930Y-10299030D01*
X10624501Y-10284744D01*
X10653073Y-10284744D01*
X10753073Y-10484744D02*
X10753073Y-10284744D01*
X10753073Y-10184744D02*
X10738787Y-10199030D01*
X10753073Y-10213316D01*
X10767358Y-10199030D01*
X10753073Y-10184744D01*
X10753073Y-10213316D01*
X10938787Y-10484744D02*
X10910216Y-10470459D01*
X10895930Y-10441887D01*
X10895930Y-10184744D01*
X11095930Y-10484744D02*
X11067358Y-10470459D01*
X11053073Y-10441887D01*
X11053073Y-10184744D01*
X11438787Y-10484744D02*
X11438787Y-10184744D01*
X11538787Y-10399030D01*
X11638787Y-10184744D01*
X11638787Y-10484744D01*
X11910216Y-10484744D02*
X11910216Y-10327602D01*
X11895930Y-10299030D01*
X11867358Y-10284744D01*
X11810216Y-10284744D01*
X11781644Y-10299030D01*
X11910216Y-10470459D02*
X11881644Y-10484744D01*
X11810216Y-10484744D01*
X11781644Y-10470459D01*
X11767358Y-10441887D01*
X11767358Y-10413316D01*
X11781644Y-10384744D01*
X11810216Y-10370459D01*
X11881644Y-10370459D01*
X11910216Y-10356173D01*
X12053073Y-10284744D02*
X12053073Y-10584744D01*
X12053073Y-10299030D02*
X12081644Y-10284744D01*
X12138787Y-10284744D01*
X12167358Y-10299030D01*
X12181644Y-10313316D01*
X12195930Y-10341887D01*
X12195930Y-10427602D01*
X12181644Y-10456173D01*
X12167358Y-10470459D01*
X12138787Y-10484744D01*
X12081644Y-10484744D01*
X12053073Y-10470459D01*
X12324501Y-10456173D02*
X12338787Y-10470459D01*
X12324501Y-10484744D01*
X12310216Y-10470459D01*
X12324501Y-10456173D01*
X12324501Y-10484744D01*
X12324501Y-10299030D02*
X12338787Y-10313316D01*
X12324501Y-10327602D01*
X12310216Y-10313316D01*
X12324501Y-10299030D01*
X12324501Y-10327602D01*
X9917430Y-10947280D02*
X9980930Y-11010780D01*
X9980930Y-10947280D02*
X9917430Y-11010780D01*
X10324501Y-10814744D02*
X10353073Y-10814744D01*
X10381644Y-10829030D01*
X10395930Y-10843316D01*
X10410216Y-10871887D01*
X10424501Y-10929030D01*
X10424501Y-11000459D01*
X10410216Y-11057602D01*
X10395930Y-11086173D01*
X10381644Y-11100459D01*
X10353073Y-11114744D01*
X10324501Y-11114744D01*
X10295930Y-11100459D01*
X10281644Y-11086173D01*
X10267358Y-11057602D01*
X10253073Y-11000459D01*
X10253073Y-10929030D01*
X10267358Y-10871887D01*
X10281644Y-10843316D01*
X10295930Y-10829030D01*
X10324501Y-10814744D01*
X10553073Y-11086173D02*
X10567358Y-11100459D01*
X10553073Y-11114744D01*
X10538787Y-11100459D01*
X10553073Y-11086173D01*
X10553073Y-11114744D01*
X10824501Y-10814744D02*
X10767358Y-10814744D01*
X10738787Y-10829030D01*
X10724501Y-10843316D01*
X10695930Y-10886173D01*
X10681644Y-10943316D01*
X10681644Y-11057602D01*
X10695930Y-11086173D01*
X10710216Y-11100459D01*
X10738787Y-11114744D01*
X10795930Y-11114744D01*
X10824501Y-11100459D01*
X10838787Y-11086173D01*
X10853073Y-11057602D01*
X10853073Y-10986173D01*
X10838787Y-10957602D01*
X10824501Y-10943316D01*
X10795930Y-10929030D01*
X10738787Y-10929030D01*
X10710216Y-10943316D01*
X10695930Y-10957602D01*
X10681644Y-10986173D01*
X10953073Y-10814744D02*
X11138787Y-10814744D01*
X11038787Y-10929030D01*
X11081644Y-10929030D01*
X11110216Y-10943316D01*
X11124501Y-10957602D01*
X11138787Y-10986173D01*
X11138787Y-11057602D01*
X11124501Y-11086173D01*
X11110216Y-11100459D01*
X11081644Y-11114744D01*
X10995930Y-11114744D01*
X10967358Y-11100459D01*
X10953073Y-11086173D01*
X11410216Y-10814744D02*
X11267358Y-10814744D01*
X11253073Y-10957602D01*
X11267358Y-10943316D01*
X11295930Y-10929030D01*
X11367358Y-10929030D01*
X11395930Y-10943316D01*
X11410216Y-10957602D01*
X11424501Y-10986173D01*
X11424501Y-11057602D01*
X11410216Y-11086173D01*
X11395930Y-11100459D01*
X11367358Y-11114744D01*
X11295930Y-11114744D01*
X11267358Y-11100459D01*
X11253073Y-11086173D01*
X11553073Y-11114744D02*
X11553073Y-10914744D01*
X11553073Y-10943316D02*
X11567358Y-10929030D01*
X11595930Y-10914744D01*
X11638787Y-10914744D01*
X11667358Y-10929030D01*
X11681644Y-10957602D01*
X11681644Y-11114744D01*
X11681644Y-10957602D02*
X11695930Y-10929030D01*
X11724501Y-10914744D01*
X11767358Y-10914744D01*
X11795930Y-10929030D01*
X11810216Y-10957602D01*
X11810216Y-11114744D01*
X11953073Y-11114744D02*
X11953073Y-10914744D01*
X11953073Y-10943316D02*
X11967358Y-10929030D01*
X11995930Y-10914744D01*
X12038787Y-10914744D01*
X12067358Y-10929030D01*
X12081644Y-10957602D01*
X12081644Y-11114744D01*
X12081644Y-10957602D02*
X12095930Y-10929030D01*
X12124501Y-10914744D01*
X12167358Y-10914744D01*
X12195930Y-10929030D01*
X12210216Y-10957602D01*
X12210216Y-11114744D01*
X12795930Y-10800459D02*
X12538787Y-11186173D01*
X13181644Y-10814744D02*
X13210216Y-10814744D01*
X13238787Y-10829030D01*
X13253073Y-10843316D01*
X13267358Y-10871887D01*
X13281644Y-10929030D01*
X13281644Y-11000459D01*
X13267358Y-11057602D01*
X13253073Y-11086173D01*
X13238787Y-11100459D01*
X13210216Y-11114744D01*
X13181644Y-11114744D01*
X13153073Y-11100459D01*
X13138787Y-11086173D01*
X13124501Y-11057602D01*
X13110216Y-11000459D01*
X13110216Y-10929030D01*
X13124501Y-10871887D01*
X13138787Y-10843316D01*
X13153073Y-10829030D01*
X13181644Y-10814744D01*
X13410216Y-11086173D02*
X13424501Y-11100459D01*
X13410216Y-11114744D01*
X13395930Y-11100459D01*
X13410216Y-11086173D01*
X13410216Y-11114744D01*
X13610216Y-10814744D02*
X13638787Y-10814744D01*
X13667358Y-10829030D01*
X13681644Y-10843316D01*
X13695930Y-10871887D01*
X13710216Y-10929030D01*
X13710216Y-11000459D01*
X13695930Y-11057602D01*
X13681644Y-11086173D01*
X13667358Y-11100459D01*
X13638787Y-11114744D01*
X13610216Y-11114744D01*
X13581644Y-11100459D01*
X13567358Y-11086173D01*
X13553073Y-11057602D01*
X13538787Y-11000459D01*
X13538787Y-10929030D01*
X13553073Y-10871887D01*
X13567358Y-10843316D01*
X13581644Y-10829030D01*
X13610216Y-10814744D01*
X13824501Y-10843316D02*
X13838787Y-10829030D01*
X13867358Y-10814744D01*
X13938787Y-10814744D01*
X13967358Y-10829030D01*
X13981644Y-10843316D01*
X13995930Y-10871887D01*
X13995930Y-10900459D01*
X13981644Y-10943316D01*
X13810216Y-11114744D01*
X13995930Y-11114744D01*
X14267358Y-10814744D02*
X14124501Y-10814744D01*
X14110216Y-10957602D01*
X14124501Y-10943316D01*
X14153073Y-10929030D01*
X14224501Y-10929030D01*
X14253073Y-10943316D01*
X14267358Y-10957602D01*
X14281644Y-10986173D01*
X14281644Y-11057602D01*
X14267358Y-11086173D01*
X14253073Y-11100459D01*
X14224501Y-11114744D01*
X14153073Y-11114744D01*
X14124501Y-11100459D01*
X14110216Y-11086173D01*
X14467358Y-10814744D02*
X14495930Y-10814744D01*
X14524501Y-10829030D01*
X14538787Y-10843316D01*
X14553073Y-10871887D01*
X14567358Y-10929030D01*
X14567358Y-11000459D01*
X14553073Y-11057602D01*
X14538787Y-11086173D01*
X14524501Y-11100459D01*
X14495930Y-11114744D01*
X14467358Y-11114744D01*
X14438787Y-11100459D01*
X14424501Y-11086173D01*
X14410216Y-11057602D01*
X14395930Y-11000459D01*
X14395930Y-10929030D01*
X14410216Y-10871887D01*
X14424501Y-10843316D01*
X14438787Y-10829030D01*
X14467358Y-10814744D01*
X14681644Y-10814744D02*
X14681644Y-10871887D01*
X14795930Y-10814744D02*
X14795930Y-10871887D01*
X15238787Y-11229030D02*
X15224501Y-11214744D01*
X15195930Y-11171887D01*
X15181644Y-11143316D01*
X15167358Y-11100459D01*
X15153073Y-11029030D01*
X15153073Y-10971887D01*
X15167358Y-10900459D01*
X15181644Y-10857602D01*
X15195930Y-10829030D01*
X15224501Y-10786173D01*
X15238787Y-10771887D01*
X15338787Y-10843316D02*
X15353073Y-10829030D01*
X15381644Y-10814744D01*
X15453073Y-10814744D01*
X15481644Y-10829030D01*
X15495930Y-10843316D01*
X15510216Y-10871887D01*
X15510216Y-10900459D01*
X15495930Y-10943316D01*
X15324501Y-11114744D01*
X15510216Y-11114744D01*
X15795930Y-11114744D02*
X15624501Y-11114744D01*
X15710216Y-11114744D02*
X15710216Y-10814744D01*
X15681644Y-10857602D01*
X15653073Y-10886173D01*
X15624501Y-10900459D01*
X16153073Y-11114744D02*
X16153073Y-10814744D01*
X16281644Y-11114744D02*
X16281644Y-10957602D01*
X16267358Y-10929030D01*
X16238787Y-10914744D01*
X16195930Y-10914744D01*
X16167358Y-10929030D01*
X16153073Y-10943316D01*
X16467358Y-11114744D02*
X16438787Y-11100459D01*
X16424501Y-11086173D01*
X16410216Y-11057602D01*
X16410216Y-10971887D01*
X16424501Y-10943316D01*
X16438787Y-10929030D01*
X16467358Y-10914744D01*
X16510216Y-10914744D01*
X16538787Y-10929030D01*
X16553073Y-10943316D01*
X16567358Y-10971887D01*
X16567358Y-11057602D01*
X16553073Y-11086173D01*
X16538787Y-11100459D01*
X16510216Y-11114744D01*
X16467358Y-11114744D01*
X16738787Y-11114744D02*
X16710216Y-11100459D01*
X16695930Y-11071887D01*
X16695930Y-10814744D01*
X16967358Y-11100459D02*
X16938787Y-11114744D01*
X16881644Y-11114744D01*
X16853073Y-11100459D01*
X16838787Y-11071887D01*
X16838787Y-10957602D01*
X16853073Y-10929030D01*
X16881644Y-10914744D01*
X16938787Y-10914744D01*
X16967358Y-10929030D01*
X16981644Y-10957602D01*
X16981644Y-10986173D01*
X16838787Y-11014744D01*
X17095930Y-11100459D02*
X17124501Y-11114744D01*
X17181644Y-11114744D01*
X17210216Y-11100459D01*
X17224501Y-11071887D01*
X17224501Y-11057602D01*
X17210216Y-11029030D01*
X17181644Y-11014744D01*
X17138787Y-11014744D01*
X17110216Y-11000459D01*
X17095930Y-10971887D01*
X17095930Y-10957602D01*
X17110216Y-10929030D01*
X17138787Y-10914744D01*
X17181644Y-10914744D01*
X17210216Y-10929030D01*
X17324501Y-11229030D02*
X17338787Y-11214744D01*
X17367358Y-11171887D01*
X17381644Y-11143316D01*
X17395930Y-11100459D01*
X17410216Y-11029030D01*
X17410216Y-10971887D01*
X17395930Y-10900459D01*
X17381644Y-10857602D01*
X17367358Y-10829030D01*
X17338787Y-10786173D01*
X17324501Y-10771887D01*
X9980930Y-11375030D02*
G75*
G03*
X9980930Y-11375030I-50800J0D01*
G01*
X10424501Y-11510744D02*
X10253073Y-11510744D01*
X10338787Y-11510744D02*
X10338787Y-11210744D01*
X10310216Y-11253601D01*
X10281644Y-11282173D01*
X10253073Y-11296459D01*
X10553073Y-11482173D02*
X10567358Y-11496459D01*
X10553073Y-11510744D01*
X10538787Y-11496459D01*
X10553073Y-11482173D01*
X10553073Y-11510744D01*
X10753073Y-11210744D02*
X10781644Y-11210744D01*
X10810216Y-11225030D01*
X10824501Y-11239316D01*
X10838787Y-11267887D01*
X10853073Y-11325030D01*
X10853073Y-11396459D01*
X10838787Y-11453601D01*
X10824501Y-11482173D01*
X10810216Y-11496459D01*
X10781644Y-11510744D01*
X10753073Y-11510744D01*
X10724501Y-11496459D01*
X10710216Y-11482173D01*
X10695930Y-11453601D01*
X10681644Y-11396459D01*
X10681644Y-11325030D01*
X10695930Y-11267887D01*
X10710216Y-11239316D01*
X10724501Y-11225030D01*
X10753073Y-11210744D01*
X11138787Y-11510744D02*
X10967358Y-11510744D01*
X11053073Y-11510744D02*
X11053073Y-11210744D01*
X11024501Y-11253601D01*
X10995930Y-11282173D01*
X10967358Y-11296459D01*
X11395930Y-11210744D02*
X11338787Y-11210744D01*
X11310216Y-11225030D01*
X11295930Y-11239316D01*
X11267358Y-11282173D01*
X11253073Y-11339316D01*
X11253073Y-11453601D01*
X11267358Y-11482173D01*
X11281644Y-11496459D01*
X11310216Y-11510744D01*
X11367358Y-11510744D01*
X11395930Y-11496459D01*
X11410216Y-11482173D01*
X11424501Y-11453601D01*
X11424501Y-11382173D01*
X11410216Y-11353601D01*
X11395930Y-11339316D01*
X11367358Y-11325030D01*
X11310216Y-11325030D01*
X11281644Y-11339316D01*
X11267358Y-11353601D01*
X11253073Y-11382173D01*
X11553073Y-11510744D02*
X11553073Y-11310744D01*
X11553073Y-11339316D02*
X11567358Y-11325030D01*
X11595930Y-11310744D01*
X11638787Y-11310744D01*
X11667358Y-11325030D01*
X11681644Y-11353601D01*
X11681644Y-11510744D01*
X11681644Y-11353601D02*
X11695930Y-11325030D01*
X11724501Y-11310744D01*
X11767358Y-11310744D01*
X11795930Y-11325030D01*
X11810216Y-11353601D01*
X11810216Y-11510744D01*
X11953073Y-11510744D02*
X11953073Y-11310744D01*
X11953073Y-11339316D02*
X11967358Y-11325030D01*
X11995930Y-11310744D01*
X12038787Y-11310744D01*
X12067358Y-11325030D01*
X12081644Y-11353601D01*
X12081644Y-11510744D01*
X12081644Y-11353601D02*
X12095930Y-11325030D01*
X12124501Y-11310744D01*
X12167358Y-11310744D01*
X12195930Y-11325030D01*
X12210216Y-11353601D01*
X12210216Y-11510744D01*
X12795930Y-11196459D02*
X12538787Y-11582173D01*
X13181644Y-11210744D02*
X13210216Y-11210744D01*
X13238787Y-11225030D01*
X13253073Y-11239316D01*
X13267358Y-11267887D01*
X13281644Y-11325030D01*
X13281644Y-11396459D01*
X13267358Y-11453601D01*
X13253073Y-11482173D01*
X13238787Y-11496459D01*
X13210216Y-11510744D01*
X13181644Y-11510744D01*
X13153073Y-11496459D01*
X13138787Y-11482173D01*
X13124501Y-11453601D01*
X13110216Y-11396459D01*
X13110216Y-11325030D01*
X13124501Y-11267887D01*
X13138787Y-11239316D01*
X13153073Y-11225030D01*
X13181644Y-11210744D01*
X13410216Y-11482173D02*
X13424501Y-11496459D01*
X13410216Y-11510744D01*
X13395930Y-11496459D01*
X13410216Y-11482173D01*
X13410216Y-11510744D01*
X13610216Y-11210744D02*
X13638787Y-11210744D01*
X13667358Y-11225030D01*
X13681644Y-11239316D01*
X13695930Y-11267887D01*
X13710216Y-11325030D01*
X13710216Y-11396459D01*
X13695930Y-11453601D01*
X13681644Y-11482173D01*
X13667358Y-11496459D01*
X13638787Y-11510744D01*
X13610216Y-11510744D01*
X13581644Y-11496459D01*
X13567358Y-11482173D01*
X13553073Y-11453601D01*
X13538787Y-11396459D01*
X13538787Y-11325030D01*
X13553073Y-11267887D01*
X13567358Y-11239316D01*
X13581644Y-11225030D01*
X13610216Y-11210744D01*
X13967358Y-11310744D02*
X13967358Y-11510744D01*
X13895930Y-11196459D02*
X13824501Y-11410744D01*
X14010216Y-11410744D01*
X14181644Y-11210744D02*
X14210216Y-11210744D01*
X14238787Y-11225030D01*
X14253073Y-11239316D01*
X14267358Y-11267887D01*
X14281644Y-11325030D01*
X14281644Y-11396459D01*
X14267358Y-11453601D01*
X14253073Y-11482173D01*
X14238787Y-11496459D01*
X14210216Y-11510744D01*
X14181644Y-11510744D01*
X14153073Y-11496459D01*
X14138787Y-11482173D01*
X14124501Y-11453601D01*
X14110216Y-11396459D01*
X14110216Y-11325030D01*
X14124501Y-11267887D01*
X14138787Y-11239316D01*
X14153073Y-11225030D01*
X14181644Y-11210744D01*
X14467358Y-11210744D02*
X14495930Y-11210744D01*
X14524501Y-11225030D01*
X14538787Y-11239316D01*
X14553073Y-11267887D01*
X14567358Y-11325030D01*
X14567358Y-11396459D01*
X14553073Y-11453601D01*
X14538787Y-11482173D01*
X14524501Y-11496459D01*
X14495930Y-11510744D01*
X14467358Y-11510744D01*
X14438787Y-11496459D01*
X14424501Y-11482173D01*
X14410216Y-11453601D01*
X14395930Y-11396459D01*
X14395930Y-11325030D01*
X14410216Y-11267887D01*
X14424501Y-11239316D01*
X14438787Y-11225030D01*
X14467358Y-11210744D01*
X14681644Y-11210744D02*
X14681644Y-11267887D01*
X14795930Y-11210744D02*
X14795930Y-11267887D01*
X15238787Y-11625030D02*
X15224501Y-11610744D01*
X15195930Y-11567887D01*
X15181644Y-11539316D01*
X15167358Y-11496459D01*
X15153073Y-11425030D01*
X15153073Y-11367887D01*
X15167358Y-11296459D01*
X15181644Y-11253601D01*
X15195930Y-11225030D01*
X15224501Y-11182173D01*
X15238787Y-11167887D01*
X15324501Y-11210744D02*
X15510216Y-11210744D01*
X15410216Y-11325030D01*
X15453073Y-11325030D01*
X15481644Y-11339316D01*
X15495930Y-11353601D01*
X15510216Y-11382173D01*
X15510216Y-11453601D01*
X15495930Y-11482173D01*
X15481644Y-11496459D01*
X15453073Y-11510744D01*
X15367358Y-11510744D01*
X15338787Y-11496459D01*
X15324501Y-11482173D01*
X15624501Y-11239316D02*
X15638787Y-11225030D01*
X15667358Y-11210744D01*
X15738787Y-11210744D01*
X15767358Y-11225030D01*
X15781644Y-11239316D01*
X15795930Y-11267887D01*
X15795930Y-11296459D01*
X15781644Y-11339316D01*
X15610216Y-11510744D01*
X15795930Y-11510744D01*
X16153073Y-11510744D02*
X16153073Y-11210744D01*
X16281644Y-11510744D02*
X16281644Y-11353601D01*
X16267358Y-11325030D01*
X16238787Y-11310744D01*
X16195930Y-11310744D01*
X16167358Y-11325030D01*
X16153073Y-11339316D01*
X16467358Y-11510744D02*
X16438787Y-11496459D01*
X16424501Y-11482173D01*
X16410216Y-11453601D01*
X16410216Y-11367887D01*
X16424501Y-11339316D01*
X16438787Y-11325030D01*
X16467358Y-11310744D01*
X16510216Y-11310744D01*
X16538787Y-11325030D01*
X16553073Y-11339316D01*
X16567358Y-11367887D01*
X16567358Y-11453601D01*
X16553073Y-11482173D01*
X16538787Y-11496459D01*
X16510216Y-11510744D01*
X16467358Y-11510744D01*
X16738787Y-11510744D02*
X16710216Y-11496459D01*
X16695930Y-11467887D01*
X16695930Y-11210744D01*
X16967358Y-11496459D02*
X16938787Y-11510744D01*
X16881644Y-11510744D01*
X16853073Y-11496459D01*
X16838787Y-11467887D01*
X16838787Y-11353601D01*
X16853073Y-11325030D01*
X16881644Y-11310744D01*
X16938787Y-11310744D01*
X16967358Y-11325030D01*
X16981644Y-11353601D01*
X16981644Y-11382173D01*
X16838787Y-11410744D01*
X17095930Y-11496459D02*
X17124501Y-11510744D01*
X17181644Y-11510744D01*
X17210216Y-11496459D01*
X17224501Y-11467887D01*
X17224501Y-11453601D01*
X17210216Y-11425030D01*
X17181644Y-11410744D01*
X17138787Y-11410744D01*
X17110216Y-11396459D01*
X17095930Y-11367887D01*
X17095930Y-11353601D01*
X17110216Y-11325030D01*
X17138787Y-11310744D01*
X17181644Y-11310744D01*
X17210216Y-11325030D01*
X17324501Y-11625030D02*
X17338787Y-11610744D01*
X17367358Y-11567887D01*
X17381644Y-11539316D01*
X17395930Y-11496459D01*
X17410216Y-11425030D01*
X17410216Y-11367887D01*
X17395930Y-11296459D01*
X17381644Y-11253601D01*
X17367358Y-11225030D01*
X17338787Y-11182173D01*
X17324501Y-11167887D01*
M02*
