%TF.GenerationSoftware,KiCad,Pcbnew,5.1.10*%
%TF.CreationDate,2021-11-10T14:40:26-05:00*%
%TF.ProjectId,panel_8x8_32mm,70616e65-6c5f-4387-9838-5f33326d6d2e,rev?*%
%TF.SameCoordinates,Original*%
%TF.FileFunction,Copper,L2,Bot*%
%TF.FilePolarity,Positive*%
%FSLAX46Y46*%
G04 Gerber Fmt 4.6, Leading zero omitted, Abs format (unit mm)*
G04 Created by KiCad (PCBNEW 5.1.10) date 2021-11-10 14:40:26*
%MOMM*%
%LPD*%
G01*
G04 APERTURE LIST*
%TA.AperFunction,ComponentPad*%
%ADD10C,1.524000*%
%TD*%
%TA.AperFunction,ComponentPad*%
%ADD11R,1.524000X1.524000*%
%TD*%
%TA.AperFunction,SMDPad,CuDef*%
%ADD12R,0.599440X1.998980*%
%TD*%
%TA.AperFunction,ViaPad*%
%ADD13C,0.889000*%
%TD*%
%TA.AperFunction,Conductor*%
%ADD14C,0.406400*%
%TD*%
%TA.AperFunction,Conductor*%
%ADD15C,0.203200*%
%TD*%
%TA.AperFunction,Conductor*%
%ADD16C,0.304800*%
%TD*%
G04 APERTURE END LIST*
D10*
%TO.P,MATRIX1,9*%
%TO.N,N-000031*%
X104000300Y-75105260D03*
%TO.P,MATRIX1,10*%
%TO.N,N-000037*%
X104000300Y-77645260D03*
%TO.P,MATRIX1,11*%
%TO.N,N-000038*%
X104000300Y-80185260D03*
%TO.P,MATRIX1,12*%
%TO.N,N-000039*%
X104000300Y-82725260D03*
%TO.P,MATRIX1,13*%
%TO.N,N-000040*%
X104000300Y-85265260D03*
%TO.P,MATRIX1,14*%
%TO.N,N-000041*%
X104000300Y-87805260D03*
%TO.P,MATRIX1,15*%
%TO.N,N-000042*%
X104000300Y-90345260D03*
%TO.P,MATRIX1,16*%
%TO.N,N-000043*%
X104000300Y-92885260D03*
D11*
%TO.P,MATRIX1,1*%
%TO.N,N-000008*%
X128000760Y-92885260D03*
D10*
%TO.P,MATRIX1,2*%
%TO.N,N-000044*%
X128000760Y-90345260D03*
%TO.P,MATRIX1,3*%
%TO.N,N-000004*%
X128000760Y-87805260D03*
%TO.P,MATRIX1,4*%
%TO.N,N-000035*%
X128000760Y-85265260D03*
%TO.P,MATRIX1,5*%
%TO.N,N-000030*%
X128000760Y-82725260D03*
%TO.P,MATRIX1,6*%
%TO.N,N-000033*%
X128000760Y-80185260D03*
%TO.P,MATRIX1,7*%
%TO.N,N-000036*%
X128000760Y-77645260D03*
%TO.P,MATRIX1,8*%
%TO.N,N-000009*%
X128000760Y-75105260D03*
%TD*%
D11*
%TO.P,P1,1*%
%TO.N,N-000005*%
X107109260Y-76499720D03*
D10*
%TO.P,P1,2*%
%TO.N,N-000013*%
X109649260Y-76499720D03*
%TO.P,P1,3*%
%TO.N,N-000028*%
X112189260Y-76499720D03*
%TO.P,P1,4*%
%TO.N,N/C*%
X114729260Y-76499720D03*
%TO.P,P1,5*%
X117269260Y-76499720D03*
%TO.P,P1,6*%
X119809260Y-76499720D03*
%TO.P,P1,7*%
%TO.N,VCC*%
X122349260Y-76499720D03*
%TO.P,P1,8*%
%TO.N,GND*%
X124889260Y-76499720D03*
%TD*%
D11*
%TO.P,P2,1*%
%TO.N,N-000005*%
X107109260Y-94500700D03*
D10*
%TO.P,P2,2*%
%TO.N,N-000013*%
X109649260Y-94500700D03*
%TO.P,P2,3*%
%TO.N,N-000029*%
X112189260Y-94500700D03*
%TO.P,P2,4*%
%TO.N,N-000014*%
X114729260Y-94500700D03*
%TO.P,P2,5*%
%TO.N,N-000046*%
X117269260Y-94500700D03*
%TO.P,P2,6*%
%TO.N,N-000015*%
X119809260Y-94500700D03*
%TO.P,P2,7*%
%TO.N,VCC*%
X122349260Y-94500700D03*
%TO.P,P2,8*%
%TO.N,GND*%
X124889260Y-94500700D03*
%TD*%
D12*
%TO.P,U1,1*%
%TO.N,N-000020*%
X121879360Y-89509600D03*
%TO.P,U1,2*%
%TO.N,N-000022*%
X120609360Y-89509600D03*
%TO.P,U1,3*%
%TO.N,N-000025*%
X119339360Y-89509600D03*
%TO.P,U1,4*%
%TO.N,N-000024*%
X118069360Y-89509600D03*
%TO.P,U1,5*%
%TO.N,N-000016*%
X116799360Y-89509600D03*
%TO.P,U1,6*%
%TO.N,N-000018*%
X115529360Y-89509600D03*
%TO.P,U1,7*%
%TO.N,N-000019*%
X114259360Y-89509600D03*
%TO.P,U1,8*%
%TO.N,N-000021*%
X112989360Y-89509600D03*
%TO.P,U1,9*%
%TO.N,GND*%
X111719360Y-89509600D03*
%TO.P,U1,18*%
%TO.N,N-000031*%
X121879360Y-79888080D03*
%TO.P,U1,17*%
%TO.N,N-000041*%
X120609360Y-79888080D03*
%TO.P,U1,16*%
%TO.N,N-000009*%
X119339360Y-79888080D03*
%TO.P,U1,15*%
%TO.N,N-000039*%
X118069360Y-79888080D03*
%TO.P,U1,14*%
%TO.N,N-000008*%
X116799360Y-79888080D03*
%TO.P,U1,13*%
%TO.N,N-000036*%
X115529360Y-79888080D03*
%TO.P,U1,12*%
%TO.N,N-000044*%
X114259360Y-79888080D03*
%TO.P,U1,11*%
%TO.N,N-000030*%
X112989360Y-79888080D03*
%TO.P,U1,10*%
%TO.N,VCC*%
X111719360Y-79888080D03*
%TD*%
D13*
%TO.N,GND*%
X122936000Y-78722220D03*
%TO.N,N-000005*%
X110599220Y-80604360D03*
X115526820Y-84899500D03*
%TO.N,N-000013*%
X115361720Y-86070440D03*
%TO.N,N-000015*%
X111061500Y-96329500D03*
X110528100Y-86690200D03*
X124680980Y-84239100D03*
%TO.N,N-000016*%
X117099080Y-83571080D03*
%TO.N,N-000018*%
X114533680Y-83141820D03*
%TO.N,N-000019*%
X110718600Y-82870040D03*
%TO.N,N-000020*%
X120309640Y-83677760D03*
%TO.N,N-000021*%
X110581440Y-84378800D03*
%TO.N,N-000022*%
X119344440Y-84353400D03*
%TO.N,N-000024*%
X118485920Y-83535520D03*
%TO.N,N-000025*%
X123789440Y-83502500D03*
%TO.N,N-000026*%
X130837940Y-77998320D03*
X128457960Y-95679260D03*
%TO.N,N-000029*%
X120065800Y-92956380D03*
X123860560Y-85346540D03*
%TO.N,N-000046*%
X127111760Y-89075260D03*
%TO.N,VCC*%
X112087660Y-78165960D03*
%TD*%
D14*
%TO.N,GND*%
X124889260Y-94500700D02*
X124889260Y-92626180D01*
X124889260Y-75471020D02*
X124889260Y-76499720D01*
X126679960Y-73680320D02*
X124889260Y-75471020D01*
X128724660Y-73680320D02*
X126679960Y-73680320D01*
X129773680Y-74729340D02*
X128724660Y-73680320D01*
X129773680Y-90632280D02*
X129773680Y-74729340D01*
X128803400Y-91602560D02*
X129773680Y-90632280D01*
X125912880Y-91602560D02*
X128803400Y-91602560D01*
X124889260Y-92626180D02*
X125912880Y-91602560D01*
D15*
X122936000Y-78452980D02*
X122936000Y-78722220D01*
X124889260Y-76499720D02*
X122936000Y-78452980D01*
X113339880Y-90871040D02*
X116133880Y-93665040D01*
X123073160Y-96316800D02*
X124889260Y-94500700D01*
X116646960Y-96316800D02*
X123073160Y-96316800D01*
X116133880Y-95803720D02*
X116646960Y-96316800D01*
X116133880Y-93665040D02*
X116133880Y-95803720D01*
X111719360Y-90871040D02*
X113339880Y-90871040D01*
X111719360Y-89509600D02*
X111719360Y-90871040D01*
%TO.N,N-000005*%
X107109260Y-93375480D02*
X107109260Y-77624940D01*
X107109260Y-94500700D02*
X107109260Y-93375480D01*
X114894360Y-84899500D02*
X115526820Y-84899500D01*
X110599220Y-80604360D02*
X114894360Y-84899500D01*
X107109260Y-76499720D02*
X107109260Y-77624940D01*
%TO.N,N-000008*%
X123761500Y-98249740D02*
X128000760Y-94010480D01*
X108366560Y-94874080D02*
X111742220Y-98249740D01*
X114970560Y-78524100D02*
X113347500Y-76901040D01*
X108366560Y-75547220D02*
X108366560Y-94874080D01*
X108577380Y-75336400D02*
X108366560Y-75547220D01*
X113256060Y-75336400D02*
X108577380Y-75336400D01*
X113347500Y-75427840D02*
X113256060Y-75336400D01*
X113347500Y-76901040D02*
X113347500Y-75427840D01*
X111742220Y-98249740D02*
X123761500Y-98249740D01*
X116799360Y-78524100D02*
X114970560Y-78524100D01*
X116799360Y-79888080D02*
X116799360Y-78524100D01*
X128000760Y-92885260D02*
X128000760Y-94010480D01*
%TO.N,N-000009*%
X122753120Y-81249520D02*
X119339360Y-81249520D01*
X128000760Y-76001880D02*
X122753120Y-81249520D01*
X128000760Y-75105260D02*
X128000760Y-76001880D01*
X119339360Y-79888080D02*
X119339360Y-81249520D01*
%TO.N,N-000013*%
X109649260Y-81818480D02*
X109649260Y-76499720D01*
X109649260Y-94500700D02*
X109649260Y-81818480D01*
X111109760Y-81818480D02*
X115361720Y-86070440D01*
X109649260Y-81818480D02*
X111109760Y-81818480D01*
%TO.N,N-000015*%
X111061500Y-93487240D02*
X111061500Y-96329500D01*
X110528100Y-86690200D02*
X110528100Y-92953840D01*
X122006360Y-92303600D02*
X119809260Y-94500700D01*
X122494040Y-92303600D02*
X122006360Y-92303600D01*
X124680980Y-90116660D02*
X122494040Y-92303600D01*
X124680980Y-84239100D02*
X124680980Y-90116660D01*
X110528100Y-92953840D02*
X111061500Y-93487240D01*
%TO.N,N-000016*%
X116799360Y-89509600D02*
X116799360Y-88145620D01*
X116799360Y-88145620D02*
X117099080Y-87845900D01*
X117099080Y-87845900D02*
X117099080Y-83571080D01*
%TO.N,N-000018*%
X114975640Y-83141820D02*
X114533680Y-83141820D01*
X116390420Y-84556600D02*
X114975640Y-83141820D01*
X116390420Y-87284560D02*
X116390420Y-84556600D01*
X115529360Y-89509600D02*
X115529360Y-88145620D01*
X115529360Y-88145620D02*
X116390420Y-87284560D01*
%TO.N,N-000019*%
X114259360Y-86410800D02*
X110718600Y-82870040D01*
X114259360Y-89509600D02*
X114259360Y-86410800D01*
%TO.N,N-000020*%
X121879360Y-89509600D02*
X121879360Y-85247480D01*
X121879360Y-85247480D02*
X120309640Y-83677760D01*
%TO.N,N-000021*%
X112989360Y-86786720D02*
X110581440Y-84378800D01*
X112989360Y-89509600D02*
X112989360Y-86786720D01*
%TO.N,N-000022*%
X120609360Y-89509600D02*
X120609360Y-85618320D01*
X120609360Y-85618320D02*
X119344440Y-84353400D01*
%TO.N,N-000024*%
X118485920Y-87729060D02*
X118485920Y-83535520D01*
X118069360Y-88145620D02*
X118485920Y-87729060D01*
X118069360Y-89509600D02*
X118069360Y-88145620D01*
%TO.N,N-000025*%
X119339360Y-89509600D02*
X119339360Y-90871040D01*
X122544840Y-84747100D02*
X123789440Y-83502500D01*
X122544840Y-90726260D02*
X122544840Y-84747100D01*
X122400060Y-90871040D02*
X122544840Y-90726260D01*
X119339360Y-90871040D02*
X122400060Y-90871040D01*
%TO.N,N-000026*%
X130837940Y-93299280D02*
X130837940Y-77998320D01*
X128457960Y-95679260D02*
X130837940Y-93299280D01*
%TO.N,N-000029*%
X121427240Y-91594940D02*
X120065800Y-92956380D01*
X122458480Y-91594940D02*
X121427240Y-91594940D01*
X123860560Y-90192860D02*
X122458480Y-91594940D01*
X123860560Y-85346540D02*
X123860560Y-90192860D01*
%TO.N,N-000030*%
X112989360Y-79888080D02*
X112989360Y-81249520D01*
X114035840Y-82296000D02*
X112989360Y-81249520D01*
X114848640Y-82296000D02*
X114035840Y-82296000D01*
X115216940Y-82664300D02*
X114848640Y-82296000D01*
X127939800Y-82664300D02*
X115216940Y-82664300D01*
X128000760Y-82725260D02*
X127939800Y-82664300D01*
%TO.N,N-000031*%
X121879360Y-78524100D02*
X121079260Y-77724000D01*
X105270300Y-73835260D02*
X104000300Y-75105260D01*
X119542560Y-73835260D02*
X105270300Y-73835260D01*
X121079260Y-77724000D02*
X121079260Y-75371960D01*
X121879360Y-79888080D02*
X121879360Y-78524100D01*
X121079260Y-75371960D02*
X119542560Y-73835260D01*
%TO.N,N-000036*%
X123916440Y-81729580D02*
X116009420Y-81729580D01*
X128000760Y-77645260D02*
X123916440Y-81729580D01*
X115529360Y-79888080D02*
X115529360Y-81249520D01*
X116009420Y-81729580D02*
X115529360Y-81249520D01*
%TO.N,N-000039*%
X118069360Y-79888080D02*
X118069360Y-78524100D01*
X117698520Y-78524100D02*
X118069360Y-78524100D01*
X115887500Y-76713080D02*
X117698520Y-78524100D01*
X115887500Y-75453240D02*
X115887500Y-76713080D01*
X115247420Y-74813160D02*
X115887500Y-75453240D01*
X106646980Y-74813160D02*
X115247420Y-74813160D01*
X105981500Y-75478640D02*
X106646980Y-74813160D01*
X105981500Y-80744060D02*
X105981500Y-75478640D01*
X104000300Y-82725260D02*
X105981500Y-80744060D01*
%TO.N,N-000041*%
X102588060Y-86393020D02*
X104000300Y-87805260D01*
X102588060Y-79367380D02*
X102588060Y-86393020D01*
X102928420Y-79027020D02*
X102588060Y-79367380D01*
X104401620Y-79027020D02*
X102928420Y-79027020D01*
X105488740Y-77939900D02*
X104401620Y-79027020D01*
X105488740Y-75244960D02*
X105488740Y-77939900D01*
X106387900Y-74345800D02*
X105488740Y-75244960D01*
X116806980Y-74345800D02*
X106387900Y-74345800D01*
X118539260Y-76078080D02*
X116806980Y-74345800D01*
X118539260Y-76824840D02*
X118539260Y-76078080D01*
X120238520Y-78524100D02*
X118539260Y-76824840D01*
X120609360Y-78524100D02*
X120238520Y-78524100D01*
X120609360Y-79888080D02*
X120609360Y-78524100D01*
%TO.N,N-000044*%
X124305060Y-82196940D02*
X124934980Y-81567020D01*
X129072640Y-81567020D02*
X129136140Y-81630520D01*
X129136140Y-81630520D02*
X129136140Y-89209880D01*
X129136140Y-89209880D02*
X128000760Y-90345260D01*
X114259360Y-81249520D02*
X114465100Y-81249520D01*
X114465100Y-81249520D02*
X115412520Y-82196940D01*
X115412520Y-82196940D02*
X124305060Y-82196940D01*
X114259360Y-79888080D02*
X114259360Y-81249520D01*
X124934980Y-81567020D02*
X129072640Y-81567020D01*
%TO.N,N-000046*%
X121879360Y-93375480D02*
X122811540Y-93375480D01*
X120937020Y-94317820D02*
X121879360Y-93375480D01*
X120937020Y-95572580D02*
X120937020Y-94317820D01*
X120881140Y-95628460D02*
X120937020Y-95572580D01*
X118397020Y-95628460D02*
X120881140Y-95628460D01*
X117269260Y-94500700D02*
X118397020Y-95628460D01*
X122811540Y-93375480D02*
X127111760Y-89075260D01*
D16*
%TO.N,VCC*%
X111780320Y-78473300D02*
X112087660Y-78165960D01*
X111719360Y-79888080D02*
X111719360Y-78473300D01*
X111719360Y-78473300D02*
X111780320Y-78473300D01*
%TD*%
M02*
