%TF.GenerationSoftware,KiCad,Pcbnew,5.1.10*%
%TF.CreationDate,2021-11-10T14:40:26-05:00*%
%TF.ProjectId,panel_8x8_32mm,70616e65-6c5f-4387-9838-5f33326d6d2e,rev?*%
%TF.SameCoordinates,Original*%
%TF.FileFunction,Legend,Bot*%
%TF.FilePolarity,Positive*%
%FSLAX46Y46*%
G04 Gerber Fmt 4.6, Leading zero omitted, Abs format (unit mm)*
G04 Created by KiCad (PCBNEW 5.1.10) date 2021-11-10 14:40:26*
%MOMM*%
%LPD*%
G01*
G04 APERTURE LIST*
%ADD10C,0.200660*%
%ADD11C,0.203200*%
G04 APERTURE END LIST*
D10*
X126765876Y-70151824D02*
X126765876Y-69151064D01*
X126336979Y-70151824D02*
X126336979Y-69627617D01*
X126384634Y-69532306D01*
X126479944Y-69484651D01*
X126622910Y-69484651D01*
X126718220Y-69532306D01*
X126765876Y-69579961D01*
X126003392Y-69484651D02*
X125622150Y-69484651D01*
X125860426Y-69151064D02*
X125860426Y-70008859D01*
X125812771Y-70104169D01*
X125717460Y-70151824D01*
X125622150Y-70151824D01*
X125431529Y-69484651D02*
X125050287Y-69484651D01*
X125288563Y-69151064D02*
X125288563Y-70008859D01*
X125240908Y-70104169D01*
X125145598Y-70151824D01*
X125050287Y-70151824D01*
X124716700Y-69484651D02*
X124716700Y-70485411D01*
X124716700Y-69532306D02*
X124621390Y-69484651D01*
X124430769Y-69484651D01*
X124335459Y-69532306D01*
X124287803Y-69579961D01*
X124240148Y-69675272D01*
X124240148Y-69961203D01*
X124287803Y-70056514D01*
X124335459Y-70104169D01*
X124430769Y-70151824D01*
X124621390Y-70151824D01*
X124716700Y-70104169D01*
X123858906Y-70104169D02*
X123763596Y-70151824D01*
X123572975Y-70151824D01*
X123477664Y-70104169D01*
X123430009Y-70008859D01*
X123430009Y-69961203D01*
X123477664Y-69865893D01*
X123572975Y-69818238D01*
X123715940Y-69818238D01*
X123811251Y-69770582D01*
X123858906Y-69675272D01*
X123858906Y-69627617D01*
X123811251Y-69532306D01*
X123715940Y-69484651D01*
X123572975Y-69484651D01*
X123477664Y-69532306D01*
X123001112Y-70056514D02*
X122953457Y-70104169D01*
X123001112Y-70151824D01*
X123048767Y-70104169D01*
X123001112Y-70056514D01*
X123001112Y-70151824D01*
X123001112Y-69532306D02*
X122953457Y-69579961D01*
X123001112Y-69627617D01*
X123048767Y-69579961D01*
X123001112Y-69532306D01*
X123001112Y-69627617D01*
X121809731Y-69103409D02*
X122667525Y-70390100D01*
X120761316Y-69103409D02*
X121619110Y-70390100D01*
X120427729Y-70151824D02*
X120427729Y-69484651D01*
X120427729Y-69675272D02*
X120380074Y-69579961D01*
X120332419Y-69532306D01*
X120237108Y-69484651D01*
X120141798Y-69484651D01*
X119426969Y-70104169D02*
X119522280Y-70151824D01*
X119712900Y-70151824D01*
X119808211Y-70104169D01*
X119855866Y-70008859D01*
X119855866Y-69627617D01*
X119808211Y-69532306D01*
X119712900Y-69484651D01*
X119522280Y-69484651D01*
X119426969Y-69532306D01*
X119379314Y-69627617D01*
X119379314Y-69722927D01*
X119855866Y-69818238D01*
X118950417Y-70151824D02*
X118950417Y-69484651D01*
X118950417Y-69151064D02*
X118998072Y-69198720D01*
X118950417Y-69246375D01*
X118902761Y-69198720D01*
X118950417Y-69151064D01*
X118950417Y-69246375D01*
X118521520Y-70104169D02*
X118426209Y-70151824D01*
X118235588Y-70151824D01*
X118140278Y-70104169D01*
X118092622Y-70008859D01*
X118092622Y-69961203D01*
X118140278Y-69865893D01*
X118235588Y-69818238D01*
X118378554Y-69818238D01*
X118473864Y-69770582D01*
X118521520Y-69675272D01*
X118521520Y-69627617D01*
X118473864Y-69532306D01*
X118378554Y-69484651D01*
X118235588Y-69484651D01*
X118140278Y-69532306D01*
X117282483Y-70104169D02*
X117377794Y-70151824D01*
X117568415Y-70151824D01*
X117663725Y-70104169D01*
X117711380Y-70008859D01*
X117711380Y-69627617D01*
X117663725Y-69532306D01*
X117568415Y-69484651D01*
X117377794Y-69484651D01*
X117282483Y-69532306D01*
X117234828Y-69627617D01*
X117234828Y-69722927D01*
X117711380Y-69818238D01*
X116805931Y-70151824D02*
X116805931Y-69484651D01*
X116805931Y-69675272D02*
X116758276Y-69579961D01*
X116710620Y-69532306D01*
X116615310Y-69484651D01*
X116520000Y-69484651D01*
X116043447Y-70151824D02*
X116138758Y-70104169D01*
X116186413Y-70008859D01*
X116186413Y-69151064D01*
X115233308Y-70151824D02*
X115233308Y-69627617D01*
X115280963Y-69532306D01*
X115376274Y-69484651D01*
X115566895Y-69484651D01*
X115662205Y-69532306D01*
X115233308Y-70104169D02*
X115328619Y-70151824D01*
X115566895Y-70151824D01*
X115662205Y-70104169D01*
X115709860Y-70008859D01*
X115709860Y-69913548D01*
X115662205Y-69818238D01*
X115566895Y-69770582D01*
X115328619Y-69770582D01*
X115233308Y-69722927D01*
X114756756Y-70151824D02*
X114756756Y-69151064D01*
X114756756Y-69532306D02*
X114661445Y-69484651D01*
X114470824Y-69484651D01*
X114375514Y-69532306D01*
X114327859Y-69579961D01*
X114280203Y-69675272D01*
X114280203Y-69961203D01*
X114327859Y-70056514D01*
X114375514Y-70104169D01*
X114470824Y-70151824D01*
X114661445Y-70151824D01*
X114756756Y-70104169D01*
X113851306Y-70056514D02*
X113803651Y-70104169D01*
X113851306Y-70151824D01*
X113898961Y-70104169D01*
X113851306Y-70056514D01*
X113851306Y-70151824D01*
X112945857Y-69484651D02*
X112945857Y-70294790D01*
X112993512Y-70390100D01*
X113041167Y-70437756D01*
X113136478Y-70485411D01*
X113279443Y-70485411D01*
X113374754Y-70437756D01*
X112945857Y-70104169D02*
X113041167Y-70151824D01*
X113231788Y-70151824D01*
X113327099Y-70104169D01*
X113374754Y-70056514D01*
X113422409Y-69961203D01*
X113422409Y-69675272D01*
X113374754Y-69579961D01*
X113327099Y-69532306D01*
X113231788Y-69484651D01*
X113041167Y-69484651D01*
X112945857Y-69532306D01*
X112469304Y-70151824D02*
X112469304Y-69484651D01*
X112469304Y-69151064D02*
X112516960Y-69198720D01*
X112469304Y-69246375D01*
X112421649Y-69198720D01*
X112469304Y-69151064D01*
X112469304Y-69246375D01*
X112135718Y-69484651D02*
X111754476Y-69484651D01*
X111992752Y-69151064D02*
X111992752Y-70008859D01*
X111945097Y-70104169D01*
X111849786Y-70151824D01*
X111754476Y-70151824D01*
X111420889Y-70151824D02*
X111420889Y-69151064D01*
X110991992Y-70151824D02*
X110991992Y-69627617D01*
X111039647Y-69532306D01*
X111134958Y-69484651D01*
X111277923Y-69484651D01*
X111373234Y-69532306D01*
X111420889Y-69579961D01*
X110086542Y-69484651D02*
X110086542Y-70151824D01*
X110515440Y-69484651D02*
X110515440Y-70008859D01*
X110467784Y-70104169D01*
X110372474Y-70151824D01*
X110229508Y-70151824D01*
X110134198Y-70104169D01*
X110086542Y-70056514D01*
X109609990Y-70151824D02*
X109609990Y-69151064D01*
X109609990Y-69532306D02*
X109514680Y-69484651D01*
X109324059Y-69484651D01*
X109228748Y-69532306D01*
X109181093Y-69579961D01*
X109133438Y-69675272D01*
X109133438Y-69961203D01*
X109181093Y-70056514D01*
X109228748Y-70104169D01*
X109324059Y-70151824D01*
X109514680Y-70151824D01*
X109609990Y-70104169D01*
X108704540Y-70056514D02*
X108656885Y-70104169D01*
X108704540Y-70151824D01*
X108752196Y-70104169D01*
X108704540Y-70056514D01*
X108704540Y-70151824D01*
X108227988Y-70151824D02*
X108227988Y-69484651D01*
X108227988Y-69151064D02*
X108275643Y-69198720D01*
X108227988Y-69246375D01*
X108180333Y-69198720D01*
X108227988Y-69151064D01*
X108227988Y-69246375D01*
X107608470Y-70151824D02*
X107703780Y-70104169D01*
X107751436Y-70056514D01*
X107799091Y-69961203D01*
X107799091Y-69675272D01*
X107751436Y-69579961D01*
X107703780Y-69532306D01*
X107608470Y-69484651D01*
X107465504Y-69484651D01*
X107370194Y-69532306D01*
X107322539Y-69579961D01*
X107274883Y-69675272D01*
X107274883Y-69961203D01*
X107322539Y-70056514D01*
X107370194Y-70104169D01*
X107465504Y-70151824D01*
X107608470Y-70151824D01*
X106131158Y-69103409D02*
X106988952Y-70390100D01*
X125050287Y-71853624D02*
X125050287Y-70852864D01*
X124716700Y-71567693D01*
X124383114Y-70852864D01*
X124383114Y-71853624D01*
X123763596Y-71853624D02*
X123858906Y-71805969D01*
X123906561Y-71758314D01*
X123954217Y-71663003D01*
X123954217Y-71377072D01*
X123906561Y-71281761D01*
X123858906Y-71234106D01*
X123763596Y-71186451D01*
X123620630Y-71186451D01*
X123525320Y-71234106D01*
X123477664Y-71281761D01*
X123430009Y-71377072D01*
X123430009Y-71663003D01*
X123477664Y-71758314D01*
X123525320Y-71805969D01*
X123620630Y-71853624D01*
X123763596Y-71853624D01*
X122572215Y-71853624D02*
X122572215Y-70852864D01*
X122572215Y-71805969D02*
X122667525Y-71853624D01*
X122858146Y-71853624D01*
X122953457Y-71805969D01*
X123001112Y-71758314D01*
X123048767Y-71663003D01*
X123048767Y-71377072D01*
X123001112Y-71281761D01*
X122953457Y-71234106D01*
X122858146Y-71186451D01*
X122667525Y-71186451D01*
X122572215Y-71234106D01*
X121666765Y-71186451D02*
X121666765Y-71853624D01*
X122095662Y-71186451D02*
X122095662Y-71710659D01*
X122048007Y-71805969D01*
X121952697Y-71853624D01*
X121809731Y-71853624D01*
X121714420Y-71805969D01*
X121666765Y-71758314D01*
X121047247Y-71853624D02*
X121142558Y-71805969D01*
X121190213Y-71710659D01*
X121190213Y-70852864D01*
X120237108Y-71853624D02*
X120237108Y-71329417D01*
X120284763Y-71234106D01*
X120380074Y-71186451D01*
X120570695Y-71186451D01*
X120666005Y-71234106D01*
X120237108Y-71805969D02*
X120332419Y-71853624D01*
X120570695Y-71853624D01*
X120666005Y-71805969D01*
X120713660Y-71710659D01*
X120713660Y-71615348D01*
X120666005Y-71520038D01*
X120570695Y-71472382D01*
X120332419Y-71472382D01*
X120237108Y-71424727D01*
X119760556Y-71853624D02*
X119760556Y-71186451D01*
X119760556Y-71377072D02*
X119712900Y-71281761D01*
X119665245Y-71234106D01*
X119569935Y-71186451D01*
X119474624Y-71186451D01*
X119141038Y-71472382D02*
X118378554Y-71472382D01*
X117425449Y-71853624D02*
X117902001Y-71853624D01*
X117902001Y-70852864D01*
X117091862Y-71329417D02*
X116758276Y-71329417D01*
X116615310Y-71853624D02*
X117091862Y-71853624D01*
X117091862Y-70852864D01*
X116615310Y-70852864D01*
X116186413Y-71853624D02*
X116186413Y-70852864D01*
X115948137Y-70852864D01*
X115805171Y-70900520D01*
X115709860Y-70995830D01*
X115662205Y-71091140D01*
X115614550Y-71281761D01*
X115614550Y-71424727D01*
X115662205Y-71615348D01*
X115709860Y-71710659D01*
X115805171Y-71805969D01*
X115948137Y-71853624D01*
X116186413Y-71853624D01*
X115185653Y-71472382D02*
X114423169Y-71472382D01*
X113946617Y-71853624D02*
X113946617Y-70852864D01*
X113708340Y-70852864D01*
X113565375Y-70900520D01*
X113470064Y-70995830D01*
X113422409Y-71091140D01*
X113374754Y-71281761D01*
X113374754Y-71424727D01*
X113422409Y-71615348D01*
X113470064Y-71710659D01*
X113565375Y-71805969D01*
X113708340Y-71853624D01*
X113946617Y-71853624D01*
X112945857Y-71853624D02*
X112945857Y-71186451D01*
X112945857Y-70852864D02*
X112993512Y-70900520D01*
X112945857Y-70948175D01*
X112898201Y-70900520D01*
X112945857Y-70852864D01*
X112945857Y-70948175D01*
X112516960Y-71805969D02*
X112421649Y-71853624D01*
X112231028Y-71853624D01*
X112135718Y-71805969D01*
X112088062Y-71710659D01*
X112088062Y-71663003D01*
X112135718Y-71567693D01*
X112231028Y-71520038D01*
X112373994Y-71520038D01*
X112469304Y-71472382D01*
X112516960Y-71377072D01*
X112516960Y-71329417D01*
X112469304Y-71234106D01*
X112373994Y-71186451D01*
X112231028Y-71186451D01*
X112135718Y-71234106D01*
X111659165Y-71186451D02*
X111659165Y-72187211D01*
X111659165Y-71234106D02*
X111563855Y-71186451D01*
X111373234Y-71186451D01*
X111277923Y-71234106D01*
X111230268Y-71281761D01*
X111182613Y-71377072D01*
X111182613Y-71663003D01*
X111230268Y-71758314D01*
X111277923Y-71805969D01*
X111373234Y-71853624D01*
X111563855Y-71853624D01*
X111659165Y-71805969D01*
X110610750Y-71853624D02*
X110706060Y-71805969D01*
X110753716Y-71710659D01*
X110753716Y-70852864D01*
X109800611Y-71853624D02*
X109800611Y-71329417D01*
X109848266Y-71234106D01*
X109943577Y-71186451D01*
X110134198Y-71186451D01*
X110229508Y-71234106D01*
X109800611Y-71805969D02*
X109895921Y-71853624D01*
X110134198Y-71853624D01*
X110229508Y-71805969D01*
X110277163Y-71710659D01*
X110277163Y-71615348D01*
X110229508Y-71520038D01*
X110134198Y-71472382D01*
X109895921Y-71472382D01*
X109800611Y-71424727D01*
X109419369Y-71186451D02*
X109181093Y-71853624D01*
X108942817Y-71186451D02*
X109181093Y-71853624D01*
X109276403Y-72091900D01*
X109324059Y-72139556D01*
X109419369Y-72187211D01*
X107846746Y-70805209D02*
X108704540Y-72091900D01*
X101085551Y-73392501D02*
X102086311Y-73392501D01*
X101133206Y-73392501D02*
X101085551Y-73487812D01*
X101085551Y-73678433D01*
X101133206Y-73773743D01*
X101180861Y-73821399D01*
X101276172Y-73869054D01*
X101562103Y-73869054D01*
X101657414Y-73821399D01*
X101705069Y-73773743D01*
X101752724Y-73678433D01*
X101752724Y-73487812D01*
X101705069Y-73392501D01*
X101752724Y-74726848D02*
X101228517Y-74726848D01*
X101133206Y-74679193D01*
X101085551Y-74583882D01*
X101085551Y-74393261D01*
X101133206Y-74297951D01*
X101705069Y-74726848D02*
X101752724Y-74631538D01*
X101752724Y-74393261D01*
X101705069Y-74297951D01*
X101609759Y-74250296D01*
X101514448Y-74250296D01*
X101419138Y-74297951D01*
X101371482Y-74393261D01*
X101371482Y-74631538D01*
X101323827Y-74726848D01*
X101085551Y-75203400D02*
X101752724Y-75203400D01*
X101180861Y-75203400D02*
X101133206Y-75251056D01*
X101085551Y-75346366D01*
X101085551Y-75489332D01*
X101133206Y-75584642D01*
X101228517Y-75632298D01*
X101752724Y-75632298D01*
X101705069Y-76490092D02*
X101752724Y-76394781D01*
X101752724Y-76204160D01*
X101705069Y-76108850D01*
X101609759Y-76061195D01*
X101228517Y-76061195D01*
X101133206Y-76108850D01*
X101085551Y-76204160D01*
X101085551Y-76394781D01*
X101133206Y-76490092D01*
X101228517Y-76537747D01*
X101323827Y-76537747D01*
X101419138Y-76061195D01*
X101752724Y-77109610D02*
X101705069Y-77014300D01*
X101609759Y-76966644D01*
X100751964Y-76966644D01*
X101180861Y-78396301D02*
X101133206Y-78300991D01*
X101085551Y-78253336D01*
X100990240Y-78205680D01*
X100942585Y-78205680D01*
X100847275Y-78253336D01*
X100799620Y-78300991D01*
X100751964Y-78396301D01*
X100751964Y-78586922D01*
X100799620Y-78682233D01*
X100847275Y-78729888D01*
X100942585Y-78777543D01*
X100990240Y-78777543D01*
X101085551Y-78729888D01*
X101133206Y-78682233D01*
X101180861Y-78586922D01*
X101180861Y-78396301D01*
X101228517Y-78300991D01*
X101276172Y-78253336D01*
X101371482Y-78205680D01*
X101562103Y-78205680D01*
X101657414Y-78253336D01*
X101705069Y-78300991D01*
X101752724Y-78396301D01*
X101752724Y-78586922D01*
X101705069Y-78682233D01*
X101657414Y-78729888D01*
X101562103Y-78777543D01*
X101371482Y-78777543D01*
X101276172Y-78729888D01*
X101228517Y-78682233D01*
X101180861Y-78586922D01*
X101752724Y-79111130D02*
X101085551Y-79635338D01*
X101085551Y-79111130D02*
X101752724Y-79635338D01*
X101180861Y-80159545D02*
X101133206Y-80064235D01*
X101085551Y-80016580D01*
X100990240Y-79968924D01*
X100942585Y-79968924D01*
X100847275Y-80016580D01*
X100799620Y-80064235D01*
X100751964Y-80159545D01*
X100751964Y-80350166D01*
X100799620Y-80445477D01*
X100847275Y-80493132D01*
X100942585Y-80540787D01*
X100990240Y-80540787D01*
X101085551Y-80493132D01*
X101133206Y-80445477D01*
X101180861Y-80350166D01*
X101180861Y-80159545D01*
X101228517Y-80064235D01*
X101276172Y-80016580D01*
X101371482Y-79968924D01*
X101562103Y-79968924D01*
X101657414Y-80016580D01*
X101705069Y-80064235D01*
X101752724Y-80159545D01*
X101752724Y-80350166D01*
X101705069Y-80445477D01*
X101657414Y-80493132D01*
X101562103Y-80540787D01*
X101371482Y-80540787D01*
X101276172Y-80493132D01*
X101228517Y-80445477D01*
X101180861Y-80350166D01*
X100751964Y-81636858D02*
X100751964Y-82256376D01*
X101133206Y-81922789D01*
X101133206Y-82065755D01*
X101180861Y-82161065D01*
X101228517Y-82208720D01*
X101323827Y-82256376D01*
X101562103Y-82256376D01*
X101657414Y-82208720D01*
X101705069Y-82161065D01*
X101752724Y-82065755D01*
X101752724Y-81779823D01*
X101705069Y-81684513D01*
X101657414Y-81636858D01*
X100847275Y-82637618D02*
X100799620Y-82685273D01*
X100751964Y-82780583D01*
X100751964Y-83018859D01*
X100799620Y-83114170D01*
X100847275Y-83161825D01*
X100942585Y-83209480D01*
X101037896Y-83209480D01*
X101180861Y-83161825D01*
X101752724Y-82589962D01*
X101752724Y-83209480D01*
X101752724Y-83638378D02*
X101085551Y-83638378D01*
X101180861Y-83638378D02*
X101133206Y-83686033D01*
X101085551Y-83781343D01*
X101085551Y-83924309D01*
X101133206Y-84019619D01*
X101228517Y-84067275D01*
X101752724Y-84067275D01*
X101228517Y-84067275D02*
X101133206Y-84114930D01*
X101085551Y-84210240D01*
X101085551Y-84353206D01*
X101133206Y-84448517D01*
X101228517Y-84496172D01*
X101752724Y-84496172D01*
X101752724Y-84972724D02*
X101085551Y-84972724D01*
X101180861Y-84972724D02*
X101133206Y-85020379D01*
X101085551Y-85115690D01*
X101085551Y-85258656D01*
X101133206Y-85353966D01*
X101228517Y-85401621D01*
X101752724Y-85401621D01*
X101228517Y-85401621D02*
X101133206Y-85449277D01*
X101085551Y-85544587D01*
X101085551Y-85687553D01*
X101133206Y-85782863D01*
X101228517Y-85830519D01*
X101752724Y-85830519D01*
X101085551Y-86974244D02*
X101752724Y-87212520D01*
X101085551Y-87450797D01*
X101752724Y-88356246D02*
X101752724Y-87784383D01*
X101752724Y-88070315D02*
X100751964Y-88070315D01*
X100894930Y-87975004D01*
X100990240Y-87879694D01*
X101037896Y-87784383D01*
X101657414Y-88785143D02*
X101705069Y-88832799D01*
X101752724Y-88785143D01*
X101705069Y-88737488D01*
X101657414Y-88785143D01*
X101752724Y-88785143D01*
X101085551Y-89690593D02*
X101752724Y-89690593D01*
X100704309Y-89452317D02*
X101419138Y-89214040D01*
X101419138Y-89833559D01*
X102133966Y-91263216D02*
X102086311Y-91215560D01*
X101943345Y-91120250D01*
X101848035Y-91072595D01*
X101705069Y-91024939D01*
X101466793Y-90977284D01*
X101276172Y-90977284D01*
X101037896Y-91024939D01*
X100894930Y-91072595D01*
X100799620Y-91120250D01*
X100656654Y-91215560D01*
X100608999Y-91263216D01*
X100847275Y-91596802D02*
X100799620Y-91644458D01*
X100751964Y-91739768D01*
X100751964Y-91978044D01*
X100799620Y-92073355D01*
X100847275Y-92121010D01*
X100942585Y-92168665D01*
X101037896Y-92168665D01*
X101180861Y-92121010D01*
X101752724Y-91549147D01*
X101752724Y-92168665D01*
X100751964Y-92788183D02*
X100751964Y-92883494D01*
X100799620Y-92978804D01*
X100847275Y-93026459D01*
X100942585Y-93074115D01*
X101133206Y-93121770D01*
X101371482Y-93121770D01*
X101562103Y-93074115D01*
X101657414Y-93026459D01*
X101705069Y-92978804D01*
X101752724Y-92883494D01*
X101752724Y-92788183D01*
X101705069Y-92692873D01*
X101657414Y-92645218D01*
X101562103Y-92597562D01*
X101371482Y-92549907D01*
X101133206Y-92549907D01*
X100942585Y-92597562D01*
X100847275Y-92645218D01*
X100799620Y-92692873D01*
X100751964Y-92788183D01*
X100847275Y-93503012D02*
X100799620Y-93550667D01*
X100751964Y-93645978D01*
X100751964Y-93884254D01*
X100799620Y-93979564D01*
X100847275Y-94027219D01*
X100942585Y-94074875D01*
X101037896Y-94074875D01*
X101180861Y-94027219D01*
X101752724Y-93455357D01*
X101752724Y-94074875D01*
X101752724Y-95027979D02*
X101752724Y-94456117D01*
X101752724Y-94742048D02*
X100751964Y-94742048D01*
X100894930Y-94646738D01*
X100990240Y-94551427D01*
X101037896Y-94456117D01*
X102133966Y-95361566D02*
X102086311Y-95409221D01*
X101943345Y-95504532D01*
X101848035Y-95552187D01*
X101705069Y-95599842D01*
X101466793Y-95647498D01*
X101276172Y-95647498D01*
X101037896Y-95599842D01*
X100894930Y-95552187D01*
X100799620Y-95504532D01*
X100656654Y-95409221D01*
X100608999Y-95361566D01*
D11*
%TO.C,U1*%
X122499120Y-81018380D02*
X111069120Y-81018380D01*
X122499120Y-88379300D02*
X111069120Y-88389460D01*
X122499120Y-88379300D02*
X122499120Y-81018380D01*
X111069120Y-88379300D02*
X111069120Y-81018380D01*
X122514360Y-84063840D02*
X121244360Y-84063840D01*
X121244360Y-84063840D02*
X121244360Y-85333840D01*
X121244360Y-85333840D02*
X122514360Y-85333840D01*
X117573455Y-82618459D02*
X117573455Y-83440935D01*
X117525074Y-83537697D01*
X117476693Y-83586078D01*
X117379931Y-83634459D01*
X117186407Y-83634459D01*
X117089645Y-83586078D01*
X117041264Y-83537697D01*
X116992883Y-83440935D01*
X116992883Y-82618459D01*
X115976883Y-83634459D02*
X116557455Y-83634459D01*
X116267169Y-83634459D02*
X116267169Y-82618459D01*
X116363931Y-82763601D01*
X116460693Y-82860363D01*
X116557455Y-82908744D01*
X120403740Y-85285459D02*
X120403740Y-86107935D01*
X120355360Y-86204697D01*
X120306979Y-86253078D01*
X120210217Y-86301459D01*
X120016693Y-86301459D01*
X119919931Y-86253078D01*
X119871550Y-86204697D01*
X119823169Y-86107935D01*
X119823169Y-85285459D01*
X118855550Y-86301459D02*
X119339360Y-86301459D01*
X119339360Y-85285459D01*
X118516883Y-86301459D02*
X118516883Y-85285459D01*
X117936312Y-86301459D01*
X117936312Y-85285459D01*
X117500883Y-85382220D02*
X117452502Y-85333840D01*
X117355740Y-85285459D01*
X117113836Y-85285459D01*
X117017074Y-85333840D01*
X116968693Y-85382220D01*
X116920312Y-85478982D01*
X116920312Y-85575744D01*
X116968693Y-85720887D01*
X117549264Y-86301459D01*
X116920312Y-86301459D01*
X116339740Y-85720887D02*
X116436502Y-85672506D01*
X116484883Y-85624125D01*
X116533264Y-85527363D01*
X116533264Y-85478982D01*
X116484883Y-85382220D01*
X116436502Y-85333840D01*
X116339740Y-85285459D01*
X116146217Y-85285459D01*
X116049455Y-85333840D01*
X116001074Y-85382220D01*
X115952693Y-85478982D01*
X115952693Y-85527363D01*
X116001074Y-85624125D01*
X116049455Y-85672506D01*
X116146217Y-85720887D01*
X116339740Y-85720887D01*
X116436502Y-85769268D01*
X116484883Y-85817649D01*
X116533264Y-85914411D01*
X116533264Y-86107935D01*
X116484883Y-86204697D01*
X116436502Y-86253078D01*
X116339740Y-86301459D01*
X116146217Y-86301459D01*
X116049455Y-86253078D01*
X116001074Y-86204697D01*
X115952693Y-86107935D01*
X115952693Y-85914411D01*
X116001074Y-85817649D01*
X116049455Y-85769268D01*
X116146217Y-85720887D01*
X115323740Y-85285459D02*
X115226979Y-85285459D01*
X115130217Y-85333840D01*
X115081836Y-85382220D01*
X115033455Y-85478982D01*
X114985074Y-85672506D01*
X114985074Y-85914411D01*
X115033455Y-86107935D01*
X115081836Y-86204697D01*
X115130217Y-86253078D01*
X115226979Y-86301459D01*
X115323740Y-86301459D01*
X115420502Y-86253078D01*
X115468883Y-86204697D01*
X115517264Y-86107935D01*
X115565645Y-85914411D01*
X115565645Y-85672506D01*
X115517264Y-85478982D01*
X115468883Y-85382220D01*
X115420502Y-85333840D01*
X115323740Y-85285459D01*
X114114217Y-85624125D02*
X114114217Y-86301459D01*
X114356121Y-85237078D02*
X114598026Y-85962792D01*
X113969074Y-85962792D01*
X113630407Y-86011173D02*
X113146598Y-86011173D01*
X113727169Y-86301459D02*
X113388502Y-85285459D01*
X113049836Y-86301459D01*
%TD*%
M02*
