%TF.GenerationSoftware,KiCad,Pcbnew,5.1.10*%
%TF.CreationDate,2021-11-10T14:40:26-05:00*%
%TF.ProjectId,panel_8x8_32mm,70616e65-6c5f-4387-9838-5f33326d6d2e,rev?*%
%TF.SameCoordinates,Original*%
%TF.FileFunction,Legend,Top*%
%TF.FilePolarity,Positive*%
%FSLAX46Y46*%
G04 Gerber Fmt 4.6, Leading zero omitted, Abs format (unit mm)*
G04 Created by KiCad (PCBNEW 5.1.10) date 2021-11-10 14:40:26*
%MOMM*%
%LPD*%
G01*
G04 APERTURE LIST*
%ADD10C,0.149860*%
%ADD11C,0.499745*%
%ADD12C,0.500380*%
%ADD13C,0.127000*%
%ADD14C,0.152400*%
%ADD15C,0.203200*%
G04 APERTURE END LIST*
D10*
X127648365Y-95040329D02*
X127648365Y-94291029D01*
X127933812Y-94291029D01*
X128005174Y-94326710D01*
X128040855Y-94362390D01*
X128076536Y-94433752D01*
X128076536Y-94540795D01*
X128040855Y-94612157D01*
X128005174Y-94647838D01*
X127933812Y-94683519D01*
X127648365Y-94683519D01*
X128326303Y-94291029D02*
X128790155Y-94291029D01*
X128540389Y-94576476D01*
X128647431Y-94576476D01*
X128718793Y-94612157D01*
X128754474Y-94647838D01*
X128790155Y-94719200D01*
X128790155Y-94897605D01*
X128754474Y-94968967D01*
X128718793Y-95004648D01*
X128647431Y-95040329D01*
X128433346Y-95040329D01*
X128361984Y-95004648D01*
X128326303Y-94968967D01*
X103647905Y-95238449D02*
X103647905Y-94489149D01*
X103933352Y-94489149D01*
X104004714Y-94524830D01*
X104040395Y-94560510D01*
X104076076Y-94631872D01*
X104076076Y-94738915D01*
X104040395Y-94810277D01*
X104004714Y-94845958D01*
X103933352Y-94881639D01*
X103647905Y-94881639D01*
X104718333Y-94738915D02*
X104718333Y-95238449D01*
X104539929Y-94453468D02*
X104361524Y-94988682D01*
X104825376Y-94988682D01*
X106614685Y-96937709D02*
X106186514Y-96937709D01*
X106400600Y-96937709D02*
X106400600Y-96188409D01*
X106329238Y-96295451D01*
X106257876Y-96366813D01*
X106186514Y-96402494D01*
X130114765Y-93338529D02*
X129686594Y-93338529D01*
X129900680Y-93338529D02*
X129900680Y-92589229D01*
X129829318Y-92696271D01*
X129757956Y-92767633D01*
X129686594Y-92803314D01*
X109213105Y-83838929D02*
X108784934Y-83838929D01*
X108999020Y-83838929D02*
X108999020Y-83089629D01*
X108927658Y-83196671D01*
X108856296Y-83268033D01*
X108784934Y-83303714D01*
D11*
X114382308Y-68605460D02*
X115524582Y-68605460D01*
X114953445Y-70604440D02*
X114953445Y-68605460D01*
X116571667Y-68605460D02*
X116952425Y-68605460D01*
X117142804Y-68700650D01*
X117333183Y-68891029D01*
X117428372Y-69271787D01*
X117428372Y-69938113D01*
X117333183Y-70318871D01*
X117142804Y-70509250D01*
X116952425Y-70604440D01*
X116571667Y-70604440D01*
X116381288Y-70509250D01*
X116190909Y-70318871D01*
X116095719Y-69938113D01*
X116095719Y-69271787D01*
X116190909Y-68891029D01*
X116381288Y-68700650D01*
X116571667Y-68605460D01*
X118285078Y-70604440D02*
X118285078Y-68605460D01*
X119046594Y-68605460D01*
X119236973Y-68700650D01*
X119332163Y-68795839D01*
X119427352Y-68986218D01*
X119427352Y-69271787D01*
X119332163Y-69462166D01*
X119236973Y-69557355D01*
X119046594Y-69652545D01*
X118285078Y-69652545D01*
D12*
D13*
%TO.C,R9*%
X126857760Y-71765160D02*
X129143760Y-71765160D01*
X129143760Y-71765160D02*
X129143760Y-73035160D01*
X129143760Y-73035160D02*
X126857760Y-73035160D01*
X126857760Y-73035160D02*
X126857760Y-71765160D01*
%TO.C,R8*%
X106857800Y-91064080D02*
X109143800Y-91064080D01*
X109143800Y-91064080D02*
X109143800Y-92334080D01*
X109143800Y-92334080D02*
X106857800Y-92334080D01*
X106857800Y-92334080D02*
X106857800Y-91064080D01*
%TO.C,R7*%
X100957380Y-97665540D02*
X103243380Y-97665540D01*
X103243380Y-97665540D02*
X103243380Y-98935540D01*
X103243380Y-98935540D02*
X100957380Y-98935540D01*
X100957380Y-98935540D02*
X100957380Y-97665540D01*
%TO.C,R6*%
X106956860Y-88165940D02*
X109242860Y-88165940D01*
X109242860Y-88165940D02*
X109242860Y-89435940D01*
X109242860Y-89435940D02*
X106956860Y-89435940D01*
X106956860Y-89435940D02*
X106956860Y-88165940D01*
%TO.C,R5*%
X125636020Y-79956660D02*
X125636020Y-82242660D01*
X125636020Y-82242660D02*
X124366020Y-82242660D01*
X124366020Y-82242660D02*
X124366020Y-79956660D01*
X124366020Y-79956660D02*
X125636020Y-79956660D01*
%TO.C,R4*%
X106956860Y-85364320D02*
X109242860Y-85364320D01*
X109242860Y-85364320D02*
X109242860Y-86634320D01*
X109242860Y-86634320D02*
X106956860Y-86634320D01*
X106956860Y-86634320D02*
X106956860Y-85364320D01*
%TO.C,R3*%
X131234180Y-85857080D02*
X131234180Y-88143080D01*
X131234180Y-88143080D02*
X129964180Y-88143080D01*
X129964180Y-88143080D02*
X129964180Y-85857080D01*
X129964180Y-85857080D02*
X131234180Y-85857080D01*
%TO.C,R2*%
X129865120Y-80942180D02*
X129865120Y-78656180D01*
X129865120Y-78656180D02*
X131135120Y-78656180D01*
X131135120Y-78656180D02*
X131135120Y-80942180D01*
X131135120Y-80942180D02*
X129865120Y-80942180D01*
%TO.C,R1*%
X102857300Y-71765160D02*
X105143300Y-71765160D01*
X105143300Y-71765160D02*
X105143300Y-73035160D01*
X105143300Y-73035160D02*
X102857300Y-73035160D01*
X102857300Y-73035160D02*
X102857300Y-71765160D01*
D14*
%TO.C,IC1*%
X114429540Y-89928700D02*
X114429540Y-88785700D01*
X119966740Y-89928700D02*
X119966740Y-88811100D01*
X114429540Y-89928700D02*
X119966740Y-89928700D01*
X113235740Y-87693500D02*
X112143540Y-87693500D01*
X113210340Y-82080100D02*
X112143540Y-82080100D01*
X112143540Y-82054700D02*
X112118140Y-87693500D01*
X122227340Y-82105500D02*
X122252740Y-87617300D01*
X120474740Y-81013300D02*
X113286540Y-81013300D01*
X122227340Y-87642700D02*
X121185940Y-87642700D01*
X121084340Y-81648300D02*
X121084340Y-88709500D01*
X113261140Y-88760300D02*
X120982740Y-88760300D01*
X113261140Y-81013300D02*
X113261140Y-88633300D01*
X120042940Y-79870300D02*
X114404140Y-79870300D01*
X114404140Y-79870300D02*
X114404140Y-81013300D01*
X120500140Y-81023460D02*
X121084340Y-81607660D01*
X120042940Y-79875380D02*
X120042940Y-81023460D01*
X121084340Y-82105500D02*
X122232420Y-82105500D01*
X120537426Y-82059780D02*
G75*
G03*
X120537426Y-82059780I-479246J0D01*
G01*
D13*
%TO.C,C2*%
X125534420Y-89557860D02*
X125534420Y-91843860D01*
X125534420Y-91843860D02*
X124264420Y-91843860D01*
X124264420Y-91843860D02*
X124264420Y-89557860D01*
X124264420Y-89557860D02*
X125534420Y-89557860D01*
%TO.C,C1*%
X126857760Y-98165920D02*
X129143760Y-98165920D01*
X129143760Y-98165920D02*
X129143760Y-99435920D01*
X129143760Y-99435920D02*
X126857760Y-99435920D01*
X126857760Y-99435920D02*
X126857760Y-98165920D01*
D14*
%TO.C,P1*%
X125905260Y-75229720D02*
X125905260Y-77769720D01*
X106093260Y-75229720D02*
X106093260Y-77769720D01*
X106093260Y-75229720D02*
X125905260Y-75229720D01*
X125905260Y-77769720D02*
X106093260Y-77769720D01*
%TO.C,P2*%
X125905260Y-93230700D02*
X125905260Y-95770700D01*
X106093260Y-93230700D02*
X106093260Y-95770700D01*
X106093260Y-93230700D02*
X125905260Y-93230700D01*
X125905260Y-95770700D02*
X106093260Y-95770700D01*
D15*
%TO.C,X1*%
X107200700Y-82699860D02*
X107200700Y-79301340D01*
X107200700Y-79301340D02*
X108999020Y-79301340D01*
X108999020Y-79301340D02*
X108999020Y-82699860D01*
X108999020Y-82699860D02*
X107200700Y-82699860D01*
%TO.C,R9*%
D10*
X128076536Y-71237989D02*
X127826770Y-70881179D01*
X127648365Y-71237989D02*
X127648365Y-70488689D01*
X127933812Y-70488689D01*
X128005174Y-70524370D01*
X128040855Y-70560050D01*
X128076536Y-70631412D01*
X128076536Y-70738455D01*
X128040855Y-70809817D01*
X128005174Y-70845498D01*
X127933812Y-70881179D01*
X127648365Y-70881179D01*
X128433346Y-71237989D02*
X128576070Y-71237989D01*
X128647431Y-71202308D01*
X128683112Y-71166627D01*
X128754474Y-71059584D01*
X128790155Y-70916860D01*
X128790155Y-70631412D01*
X128754474Y-70560050D01*
X128718793Y-70524370D01*
X128647431Y-70488689D01*
X128504708Y-70488689D01*
X128433346Y-70524370D01*
X128397665Y-70560050D01*
X128361984Y-70631412D01*
X128361984Y-70809817D01*
X128397665Y-70881179D01*
X128433346Y-70916860D01*
X128504708Y-70952541D01*
X128647431Y-70952541D01*
X128718793Y-70916860D01*
X128754474Y-70881179D01*
X128790155Y-70809817D01*
%TO.C,R8*%
X110075556Y-92137109D02*
X109825790Y-91780299D01*
X109647385Y-92137109D02*
X109647385Y-91387809D01*
X109932832Y-91387809D01*
X110004194Y-91423490D01*
X110039875Y-91459170D01*
X110075556Y-91530532D01*
X110075556Y-91637575D01*
X110039875Y-91708937D01*
X110004194Y-91744618D01*
X109932832Y-91780299D01*
X109647385Y-91780299D01*
X110503728Y-91708937D02*
X110432366Y-91673256D01*
X110396685Y-91637575D01*
X110361004Y-91566213D01*
X110361004Y-91530532D01*
X110396685Y-91459170D01*
X110432366Y-91423490D01*
X110503728Y-91387809D01*
X110646451Y-91387809D01*
X110717813Y-91423490D01*
X110753494Y-91459170D01*
X110789175Y-91530532D01*
X110789175Y-91566213D01*
X110753494Y-91637575D01*
X110717813Y-91673256D01*
X110646451Y-91708937D01*
X110503728Y-91708937D01*
X110432366Y-91744618D01*
X110396685Y-91780299D01*
X110361004Y-91851661D01*
X110361004Y-91994385D01*
X110396685Y-92065747D01*
X110432366Y-92101428D01*
X110503728Y-92137109D01*
X110646451Y-92137109D01*
X110717813Y-92101428D01*
X110753494Y-92065747D01*
X110789175Y-91994385D01*
X110789175Y-91851661D01*
X110753494Y-91780299D01*
X110717813Y-91744618D01*
X110646451Y-91708937D01*
%TO.C,R7*%
X104474856Y-98639509D02*
X104225090Y-98282699D01*
X104046685Y-98639509D02*
X104046685Y-97890209D01*
X104332132Y-97890209D01*
X104403494Y-97925890D01*
X104439175Y-97961570D01*
X104474856Y-98032932D01*
X104474856Y-98139975D01*
X104439175Y-98211337D01*
X104403494Y-98247018D01*
X104332132Y-98282699D01*
X104046685Y-98282699D01*
X104724623Y-97890209D02*
X105224156Y-97890209D01*
X104903028Y-98639509D01*
%TO.C,R6*%
X105673736Y-89139909D02*
X105423970Y-88783099D01*
X105245565Y-89139909D02*
X105245565Y-88390609D01*
X105531012Y-88390609D01*
X105602374Y-88426290D01*
X105638055Y-88461970D01*
X105673736Y-88533332D01*
X105673736Y-88640375D01*
X105638055Y-88711737D01*
X105602374Y-88747418D01*
X105531012Y-88783099D01*
X105245565Y-88783099D01*
X106315993Y-88390609D02*
X106173270Y-88390609D01*
X106101908Y-88426290D01*
X106066227Y-88461970D01*
X105994865Y-88569013D01*
X105959184Y-88711737D01*
X105959184Y-88997185D01*
X105994865Y-89068547D01*
X106030546Y-89104228D01*
X106101908Y-89139909D01*
X106244631Y-89139909D01*
X106315993Y-89104228D01*
X106351674Y-89068547D01*
X106387355Y-88997185D01*
X106387355Y-88818780D01*
X106351674Y-88747418D01*
X106315993Y-88711737D01*
X106244631Y-88676056D01*
X106101908Y-88676056D01*
X106030546Y-88711737D01*
X105994865Y-88747418D01*
X105959184Y-88818780D01*
%TO.C,R5*%
X124975196Y-79637769D02*
X124725430Y-79280959D01*
X124547025Y-79637769D02*
X124547025Y-78888469D01*
X124832472Y-78888469D01*
X124903834Y-78924150D01*
X124939515Y-78959830D01*
X124975196Y-79031192D01*
X124975196Y-79138235D01*
X124939515Y-79209597D01*
X124903834Y-79245278D01*
X124832472Y-79280959D01*
X124547025Y-79280959D01*
X125653134Y-78888469D02*
X125296325Y-78888469D01*
X125260644Y-79245278D01*
X125296325Y-79209597D01*
X125367687Y-79173916D01*
X125546091Y-79173916D01*
X125617453Y-79209597D01*
X125653134Y-79245278D01*
X125688815Y-79316640D01*
X125688815Y-79495045D01*
X125653134Y-79566407D01*
X125617453Y-79602088D01*
X125546091Y-79637769D01*
X125367687Y-79637769D01*
X125296325Y-79602088D01*
X125260644Y-79566407D01*
%TO.C,R4*%
X105775336Y-86338289D02*
X105525570Y-85981479D01*
X105347165Y-86338289D02*
X105347165Y-85588989D01*
X105632612Y-85588989D01*
X105703974Y-85624670D01*
X105739655Y-85660350D01*
X105775336Y-85731712D01*
X105775336Y-85838755D01*
X105739655Y-85910117D01*
X105703974Y-85945798D01*
X105632612Y-85981479D01*
X105347165Y-85981479D01*
X106417593Y-85838755D02*
X106417593Y-86338289D01*
X106239189Y-85553308D02*
X106060784Y-86088522D01*
X106524636Y-86088522D01*
%TO.C,R3*%
X130474296Y-89637749D02*
X130224530Y-89280939D01*
X130046125Y-89637749D02*
X130046125Y-88888449D01*
X130331572Y-88888449D01*
X130402934Y-88924130D01*
X130438615Y-88959810D01*
X130474296Y-89031172D01*
X130474296Y-89138215D01*
X130438615Y-89209577D01*
X130402934Y-89245258D01*
X130331572Y-89280939D01*
X130046125Y-89280939D01*
X130724063Y-88888449D02*
X131187915Y-88888449D01*
X130938149Y-89173896D01*
X131045191Y-89173896D01*
X131116553Y-89209577D01*
X131152234Y-89245258D01*
X131187915Y-89316620D01*
X131187915Y-89495025D01*
X131152234Y-89566387D01*
X131116553Y-89602068D01*
X131045191Y-89637749D01*
X130831106Y-89637749D01*
X130759744Y-89602068D01*
X130724063Y-89566387D01*
%TO.C,R2*%
X130474296Y-82238729D02*
X130224530Y-81881919D01*
X130046125Y-82238729D02*
X130046125Y-81489429D01*
X130331572Y-81489429D01*
X130402934Y-81525110D01*
X130438615Y-81560790D01*
X130474296Y-81632152D01*
X130474296Y-81739195D01*
X130438615Y-81810557D01*
X130402934Y-81846238D01*
X130331572Y-81881919D01*
X130046125Y-81881919D01*
X130759744Y-81560790D02*
X130795425Y-81525110D01*
X130866787Y-81489429D01*
X131045191Y-81489429D01*
X131116553Y-81525110D01*
X131152234Y-81560790D01*
X131187915Y-81632152D01*
X131187915Y-81703514D01*
X131152234Y-81810557D01*
X130724063Y-82238729D01*
X131187915Y-82238729D01*
%TO.C,R1*%
X103875416Y-71237989D02*
X103625650Y-70881179D01*
X103447245Y-71237989D02*
X103447245Y-70488689D01*
X103732692Y-70488689D01*
X103804054Y-70524370D01*
X103839735Y-70560050D01*
X103875416Y-70631412D01*
X103875416Y-70738455D01*
X103839735Y-70809817D01*
X103804054Y-70845498D01*
X103732692Y-70881179D01*
X103447245Y-70881179D01*
X104589035Y-71237989D02*
X104160864Y-71237989D01*
X104374950Y-71237989D02*
X104374950Y-70488689D01*
X104303588Y-70595731D01*
X104232226Y-70667093D01*
X104160864Y-70702774D01*
%TO.C,IC1*%
X122037989Y-81130079D02*
X121288689Y-81130079D01*
X121966627Y-80345098D02*
X122002308Y-80380779D01*
X122037989Y-80487822D01*
X122037989Y-80559184D01*
X122002308Y-80666227D01*
X121930946Y-80737589D01*
X121859584Y-80773270D01*
X121716860Y-80808950D01*
X121609817Y-80808950D01*
X121467093Y-80773270D01*
X121395731Y-80737589D01*
X121324370Y-80666227D01*
X121288689Y-80559184D01*
X121288689Y-80487822D01*
X121324370Y-80380779D01*
X121360050Y-80345098D01*
X122037989Y-79631479D02*
X122037989Y-80059650D01*
X122037989Y-79845565D02*
X121288689Y-79845565D01*
X121395731Y-79916927D01*
X121467093Y-79988289D01*
X121502774Y-80059650D01*
%TO.C,C2*%
X124774536Y-88969487D02*
X124738855Y-89005168D01*
X124631812Y-89040849D01*
X124560450Y-89040849D01*
X124453408Y-89005168D01*
X124382046Y-88933806D01*
X124346365Y-88862444D01*
X124310684Y-88719720D01*
X124310684Y-88612677D01*
X124346365Y-88469953D01*
X124382046Y-88398591D01*
X124453408Y-88327230D01*
X124560450Y-88291549D01*
X124631812Y-88291549D01*
X124738855Y-88327230D01*
X124774536Y-88362910D01*
X125059984Y-88362910D02*
X125095665Y-88327230D01*
X125167027Y-88291549D01*
X125345431Y-88291549D01*
X125416793Y-88327230D01*
X125452474Y-88362910D01*
X125488155Y-88434272D01*
X125488155Y-88505634D01*
X125452474Y-88612677D01*
X125024303Y-89040849D01*
X125488155Y-89040849D01*
%TO.C,C1*%
X125676236Y-99068527D02*
X125640555Y-99104208D01*
X125533512Y-99139889D01*
X125462150Y-99139889D01*
X125355108Y-99104208D01*
X125283746Y-99032846D01*
X125248065Y-98961484D01*
X125212384Y-98818760D01*
X125212384Y-98711717D01*
X125248065Y-98568993D01*
X125283746Y-98497631D01*
X125355108Y-98426270D01*
X125462150Y-98390589D01*
X125533512Y-98390589D01*
X125640555Y-98426270D01*
X125676236Y-98461950D01*
X126389855Y-99139889D02*
X125961684Y-99139889D01*
X126175770Y-99139889D02*
X126175770Y-98390589D01*
X126104408Y-98497631D01*
X126033046Y-98568993D01*
X125961684Y-98604674D01*
%TO.C,P1*%
X108816805Y-74618729D02*
X108816805Y-73869429D01*
X109102252Y-73869429D01*
X109173614Y-73905110D01*
X109209295Y-73940790D01*
X109244976Y-74012152D01*
X109244976Y-74119195D01*
X109209295Y-74190557D01*
X109173614Y-74226238D01*
X109102252Y-74261919D01*
X108816805Y-74261919D01*
X109958595Y-74618729D02*
X109530424Y-74618729D01*
X109744510Y-74618729D02*
X109744510Y-73869429D01*
X109673148Y-73976471D01*
X109601786Y-74047833D01*
X109530424Y-74083514D01*
%TO.C,P2*%
X108047185Y-96937709D02*
X108047185Y-96188409D01*
X108332632Y-96188409D01*
X108403994Y-96224090D01*
X108439675Y-96259770D01*
X108475356Y-96331132D01*
X108475356Y-96438175D01*
X108439675Y-96509537D01*
X108403994Y-96545218D01*
X108332632Y-96580899D01*
X108047185Y-96580899D01*
X108760804Y-96259770D02*
X108796485Y-96224090D01*
X108867847Y-96188409D01*
X109046251Y-96188409D01*
X109117613Y-96224090D01*
X109153294Y-96259770D01*
X109188975Y-96331132D01*
X109188975Y-96402494D01*
X109153294Y-96509537D01*
X108725123Y-96937709D01*
X109188975Y-96937709D01*
%TO.C,X1*%
X107493283Y-78090909D02*
X107992817Y-78840209D01*
X107992817Y-78090909D02*
X107493283Y-78840209D01*
X108670755Y-78840209D02*
X108242583Y-78840209D01*
X108456669Y-78840209D02*
X108456669Y-78090909D01*
X108385307Y-78197951D01*
X108313945Y-78269313D01*
X108242583Y-78304994D01*
D15*
X110953731Y-80442404D02*
X111014207Y-80502880D01*
X111074683Y-80684309D01*
X111074683Y-80805261D01*
X111014207Y-80986690D01*
X110893255Y-81107642D01*
X110772302Y-81168119D01*
X110530398Y-81228595D01*
X110348969Y-81228595D01*
X110107064Y-81168119D01*
X109986112Y-81107642D01*
X109865160Y-80986690D01*
X109804683Y-80805261D01*
X109804683Y-80684309D01*
X109865160Y-80502880D01*
X109925636Y-80442404D01*
X111074683Y-79172404D02*
X110469921Y-79595738D01*
X111074683Y-79898119D02*
X109804683Y-79898119D01*
X109804683Y-79414309D01*
X109865160Y-79293357D01*
X109925636Y-79232880D01*
X110046588Y-79172404D01*
X110228017Y-79172404D01*
X110348969Y-79232880D01*
X110409445Y-79293357D01*
X110469921Y-79414309D01*
X110469921Y-79898119D01*
%TD*%
M02*
